<mxfile host="Electron" modified="2023-10-16T23:32:24.626Z" agent="Mozilla/5.0 (Windows NT 10.0; Win64; x64) AppleWebKit/537.36 (KHTML, like Gecko) draw.io/22.0.2 Chrome/114.0.5735.289 Electron/25.8.4 Safari/537.36" etag="GGKN--m_2LCIB6Fr2AQC" version="22.0.2" type="device" pages="3">
  <diagram name="MER" id="r4osPntxCqapEv56HWet">
    <mxGraphModel dx="1668" dy="965" grid="1" gridSize="10" guides="1" tooltips="1" connect="1" arrows="1" fold="1" page="1" pageScale="1" pageWidth="827" pageHeight="1169" math="0" shadow="0">
      <root>
        <mxCell id="0" />
        <mxCell id="1" parent="0" />
        <mxCell id="AaMLPRYkscA9fuNhLtrj-4" value="&lt;span data-metadata=&quot;&lt;!--(figmeta)eyJmaWxlS2V5IjoidlRmUmZHU1FRY202T0x6RWRpZnhoMCIsInBhc3RlSUQiOjE3MzM0NjAxMjQsImRhdGFUeXBlIjoic2NlbmUifQo=(/figmeta)--&gt;&quot;&gt;&lt;/span&gt;&lt;span data-buffer=&quot;&lt;!--(figma)ZmlnLWtpd2kuAAAANUAAALW9e5xkSVXgH3Ezsx79nveT4SkqIs6LYUBE8nGrMrvzNXkzq6dHnSSr8lZX0lmZZd6s6mnWdRERcUREREREHFlERBYRURERERURERERURERkXVZ1nVd12X5+fP3+56IuI+s7mH3n+XDdJw4ceJExIkTJ06ciLz1iNcIo2hwPuxe2guVuuZ0q9bsB91ip6v4X7NV8fvlarG57gdkdS/wO5m8Z6j9ZgU4F9TWm8U6UD7onqv7AAUD9ANfeC0ZWsO5H5yptfsdv94qSs3lZqtbWzvXD6qtXr3S77XXO8WK1F9xYL/Sakp+Nc53/LWOH1RBHQnKftPvg25X+/f1/M45kEezyI7frgvyWKW2tkZ6vFyv+c1uv9Sh9XIxkL6dyPTtdKvXYRy+9Oxk0O34xYYtIX/K5e2Ir6o1u36nWO7WNhhkvUbHrGgou7r40ChCQPcDK2leF7e2EDQoOFT6rabplDKZs51aVyrp5nQYtncGUQhZmaKu6QVEjdaGAfXZ0WQ4mpzv7I+FptlqPuB3WhSoVsWUCwc7k0+i0AelKq1yr8GIAXW52NwoBkDeeqfVawPk1jrFhtDlS61W3S82+602g+rWWk2QhQ2/3G11gJZEBqTL9Zphu+LX67V2IOBqByLGbeb8SMdf79WLnX67VT+3bpgcpalmxa8wFSndsa5/v3TpOIIrC+JEcK5Raon+nKw1aaxpsEi8Vj4joroqqBbbfv9srVvtu7pXl1vNJjxNB68pi66W6q3yGXLXnq1V1o3eXQevhoz0+oZfqRUBbqjW1qt1/pPiGwMY2MHe5MA+wu7Ui9LozWeLQbXW79IyuVs2ip1asWT6f2vXAY8xQL+MPMjdFpM4rX8swzO6/LhiENQCJrQP51ZPyh5/uf74dd9N1RMSRtKbDoUgnxjsDPbCs6P5Tjd8aG7n+bbgvl6x41Oq6IKbEs1IGy2jpV4XPiJ0FhbZXJKttM7KqPNXmp1Cu9gp1uusUBZRo99xwlpaRNf9NcEu+831fqWIHIqm8RXJsxZ7klmVzFrNcD1i4Fa94suEHe2yPv0HWjXp5bF2x6/4a+hWpd/utMp+IFp6HOH7dSk/EWtxP6i5Pp5MUI1evVtrG+SpRrHZK9b7tWbbyPiqqn9/0arh1eWqv9Ex4DVtqjn0tS2GbUFRFenZ9e16T5q/odjptM7Gw7zR5mJZ3BT0Gg360j/dazKFhsHNRhNvCdq+X672S70S8wfiVjPRGBUMSatTNAbiMaVxOBk2WK7SHZSj360yE+ti1DC7nYYxpbpS7JzxhbXnBilamZM1yBIrYanI5suteivJFYxmmzpLAUbEQGbVUqPSYlWQX7FV4uyq6Bh6CXgkaK11+4YHuaPVYgeNdTljQv2Ob5fmcf/+MnKyIz9RNbN9Mih2e4n1OGVaAbiq3kNUraDWlSaubg9GE6e9K0ELxQep0KhKjWmhNekqGJ2gJDXywGwBCgpNFTMDLpfgIHJKn681rJgLmM7TNYClDZaQWMrl2i67XbA1GIdW+mxXHb9bNoJfq8k4NfpqWutavc3529vhlutxvobN6bBZFVlAFKpKp9VOs3qthQVkJpsVjFFPOuiViuUzi6icrN+yMfRLLTSqhnKAVr02xpdU11tnDUAXurYPARpR75eLbdHMfJpjQXXKZnMoCNNKuDWdDeaj6YQ68RZAy8wvcgXWDLd2xk+1zauHA9lTurPRLrm4Drz7Vd/NvG7u726Gs95kNI/g2ynKUFW7dr9fDwA0vWbLFUqvPJ1E81k6w8vMPHgl5WZIulGUXdGjH07suaDMhguQX4NjpW9rFFzGUC8F89n0Qlgcj85PqJAwU+wVTCyAxqg60LPE5cEeGhmPh+Ea1dCJvfTsgha5yCByNuvf16vV2XkxdCDzTqfEhFmfoID4UD4MaIJaym4oy+mW0b+D/Eomfyf51Uz+LvJHMvm7yR/N5J9O/lgmfw/54+Vap5xt/YQd7enpSCTTwJXogFUlf8OXEeh44F5pOh2Hg0lrL4wVJN9r2pWKGKkm+x+wDnolbLOBvfvNAjb6aoRfnc5GL5hO5oMx1Z1lzMwtumyk4J3usXOv1UwP09ob4Ww+YukJrtWmKFO11Op2Ww0grzHdj8Ly/iyazpAP20IR20eBKndaASut1gHW/jlflh6qR87D8TJNtYsMBVtYRsXJ57H0JAWScq0OtNQQiypVlpli3FmglWT+THZ1g8U+nTVGs5l0IFlFZtZJtQGwQFhGdrSuqLBXGUQ71p54ZXZhUCpVcG1sjl0P+XZzHZQ63fYl1cGGJF67Is5pzn9obzqbH15DORwdTDqbn1soKkbg5pj2dYxIlqxXH1ya7s/XZ6OhZZK3yyoj8bSDnl1lubROezCfh7MJRVDV2maFYKONrdZmPvfn004YjV4A60REpjtGMkk/dAJ5Uq07259sOfXzKrVAXBzhqfCp2U0BdDC/NA6D0I2dqesELWcfu3jfJLqMdlld4SCAq9Esy8aS6/qNNhusOQTkYzYIcx4mkrxsvwHU8W6B4RhsXbDTmIypioF+AOmaHmg2SjxSA1tqo9c0d5l0rUi9EkomJgY4ZyqUp/t0aObqLT1aPcTuJidX7HVl58pnWBUMq9P70Xy0fYnso3JpF8u4lRu+PW/kbL7kd89axwApwSews2gMLkgOHEHtAb/fbWFljIAWECgdk1xrtPHcyUkJNFYa7Wk0ksllPwHlOq6KJcTes2ccQ3Z2JraZvYazT7ENWrnUFmdF5KYP6pjb4TFoSCYsWZq1k7wSTx2mwPpdco4lr3sdM3ElNmTSXLneMh5rHme9Hzvc5Au9Nv6s3zcnhn6n1+zWzBlpiVVWqYl3YxRguUbXZoNMy6c4PbD8DXdVXKP1vlRlayKvGy3Oz7imwJ6FbUGOWlVxwYDztgBnQsgKNmc89yWo8JKNY8yR2YxwpYI7SbpK2Rn/XFztCNmNlj1XHQW246iauTyW5Flx5I/bJmLFOWGznAQ3pPbJ7mwwsVNqR3gzGy7HhG6fHYKtV2QBmWIlM8Wmil7jiE7q2SPNWqeVnBRyGVS8U+QzOLsnFDKYZFNYaveCqsU5ZsspJua1kqIsq9UUkXA6Iodpi3OcjqaYmNOxFGU5IaYYkXA6YTvKJEIUMzu5gIz5nVrAWpZXLeASrleblhzWMb0mi4t5XptFWpbXZVEJx+sxb7VyX8rI3YDvSJyj2MTqmSV5I8eEFt5kirnJH0SsYDvjJwiNlHulWpkCJazjjMalz2Q9MU3WI6eGLLGkKC90C5iCrbuAW7JWPckvB+2O3RJW1lFPttwEsepIE8QRC5kFwlq2q+PoIrJ7VszHsUPIKkck0MeDrdl0PK6MZtaS0Gm3xr7CBoCEjYG2dTFDc7EG4RAjNg8p9+9vsxdam1qGgzhVJqfXe+xC2osICdEY8LLS4ymekQG98nSM66HzM7Wq9Hn+8Tb5Jzfgn7z1Tqj8EDl9iX+8DiioU8RF/snt8E/ecArm0z0qbAmsnqf0nrPSEHiNwXw2ekjppd3bbyevd2+/g8Tbvf1OktzuHYLM794hyMLuHYJcag9mWOTaZBhSzzu/PxqqBzNMjyrPHhcoPBiM90Pq6H1zdLhVeWtIqTnYDZXObQ92R+NL0OtI9moADybzaGs22puTywntxmA2GlBlfzecjbbWRuf3Z4iW3dkdkRVqx3wCaCILJuIIbJpZrBrsDbZQ6oW6hBpwGMSImbwmhuFOlVdgsCaTKwPMcsCQEjwwMP4U6mzmN1u7PNiLUOa0CuvPHC81ST/OeG2fo550PQein+TERSdKKWABFINdB1zK8G/Hcs92Cxeef/Hk8Z4ATH8CI2QmJ6GqodNmqekg3IXVaOtsODq/M18gIignQ0pIavj+o60FkpQPhwuzUayFg7mZqL/VbU6SFKnynW1D4kbjlduB4HMyKlIzUNKCi2guEegRl3i51ak0SVeKax0pX600jVE70uw1ZGhHcdwlqneMfVdEc7xi0xPi0ZOe5OAr6ali0Rwirirb9GpOUZJeE9j8tZ0NEz+5ThY46fXBWRNhvqEcnJX0RiZZ8DeVyyaceHNgvbNbqoT1SG91ftBjWp2m9O82EQrpY9knRX6Pq3TNWfnxa/WijOMJjfWOuAlPDNBZ0idxKpH2v2oNJ5r0yVWbfnXVtvs1XZv/2vts+pS2Tb9OTlqkT62vlST/9a22SZ/W6Zr0G9q2/u3tM02R0x11zBDpnaTSz7s63brk7yaV/NOLpc4G6T3F0obkn0Eq/b53w/J55gYdIn1WqX5W5ucbSYXu2aRC903FM1UZx3PKp80J8pvLa2ZBPbfcNvliudcRuhIug+TLGElJK2uWv08QUPqzRnon6TrpXaRVmpX2aqTC/3TVjofW1qU/9WrrtOgNnrDxc5o1HBLS1un2M+4lbZ9u3yt87jvdfubtpJ3T7dvvJg3qpxtSr0vkWOh77I4yLxviJJGeJZV+3N840xD8uWbduHcPNHtnuqTfwkYi/fpW0oD02zYQOOmD7aAr+D6p4J/XOdOR/KDTrkq62emVZN63Ahxp0mHX9iPsNs0ZZ5tpkvk7v0FIjXRnw5aPNuy4n79xxujLhY1Ot0M6Jr2TdDcIsOBKTUglPyW9i3SP9G7Sbyd9OumM9B7SiPQZpHNSkdM+6TNJD4IA26/URVLh9xCp8LtEKvxeQCr8/g2p8PsOUuH3b0mF33eSCr9/Ryr8XqiD4E5h+F26vGF6+CIBhOV3CyA8XyyAMP0eAYTrSwQQtt8rgPB9qQDC+PsEEM4PA5iufr8AwvllAgjnHxBAOL9cAOH8gwII51cIIJx/SADh/EoBhPMPCyCcXwVg+vwjAgjnVwsgnH9UAOH8GgGE848JIJxfK4Bw/nEBhPPrBBDOPyGAcH49wF3C+ScFEM6PCCCcf0oA4fwGAYTzvxdAOL9RAOH80wII5zcJIJx/RgDh/GaAu4XzzwognN8igHD+OQGE81sFEM7/QQDh/DYBhPPPCyCc3y6AcP4FAYTzOwCeLpx/UQDh/E4BhPMvCSCcf1kA4fwrAgjndwkgnH9VAOH8bgGE868JIJzfA3CPcP51AYTzewUQzr8hgHB+nwDC+TcFEM7vF0A4/5YAwvm3BRDOvyOAcP4AwDOE8+8KIJw/KIBw/j0BhPOHBBDOvy+AcP6wAML5DwQQzh8RQDj/oQDC+aMA9wrnPxJAOH9MAOH8xwII548LIJz/RADh/AkBhPOfCiCcPymAcP4zAYTznwMYE/UXAgjnTwkgnP9SAOH8aQGE818JIJw/I4Bw/msBhPNnBRDOfyOAcP6cPhxfwkWbs12ru5WOXTVPfNPGYG9PnCXtbc+mu+Lezaf865XG002l9ealeRipnLaBLeXluLTckfxEPDv8uOFgPjC0yyq3MRqGU+V5MU10V282FqK10Zjzc1m80uLw+cQylF6ZS6fwF6OdwXB6MQL0dnBJiATs4D/ikQ7D+WA0BsqHjCUSJwPP9IBIQUjECnhpHu6aEKctWj4YbXKG3RJ4xdw82GbdtbfyjvzfbXILz2s2YGyranVzJjwntEzuiOmM8q43E3BK6S0RhHqe8qbiqc7Fkc8djKLRJl6bVnkSd2F0QhUiPPpIbesleE+i7elsV+2o5ZGZjZdqtWKg7g5u+ES6Dmp1MAHJ4aQmRYI5ZTG4jni2TNuyuop89m7kanXEYnam++NhWfrXGExA0J/rZ1NOOVSmm0cjqQJwbNvI1lC6KX2ZVsf3ZKRrpghLrE6Eu9Pnj8q00CZojYyX9ckDoyQPa3U1AebzowknIWn57Gg4Z2DqmgVs1Xqpy+raLWkJR1g9nFfXiZPbYK4qKJ/yChfCS2qi9DbY+mgSV2J2BVMZnQ/pXY5TCDnrGr9A5SXjfOACNxDkYD6y4/RyAy71u4PzNKwFbIrU0ON45Zg4t238mq2dgRwXwlkEhU5ypqFaRYbsRQK3DsIZ4dawO2B+1SOezo1NDNaE5DaZdS6JxvQ+YsvQhfPjS3s7EXuFXhomFz0RO4Ve3uT4eOHb96eyMN+o9SnLZoMOQEKPV7YZTCKdV2q9uj0YjzeJtq1REKmJPrKDIs5o7EJp+hBcXqv1UXJAL8npY/MkcMvpduZOfwV13OHDYSLfE+PpeQnyG5LutByPvbW9HYVzLIta1Sd3R3FkL6l31S45+NvWX6f11UOOXQfhsG468dKcvqZiEamcj9lhOmnpBWl5qbRYwgvSYjEtSKuwTV+ywlm6XBbLbqTwWJDAisNnJLD6fyCBI4dHe3RoB1c3/We0x6qZPigvv0lUdBipIYdpaz/dyTu3E9NxICgQQUwYswjSSlHaaSIM2JIYzo2iDY50kHDQt3XPsHSWVaHkxKm8FeyePWUi5YtmUbKQpOwcQE6AZPR5yRWjLViRW8ZMTmdhPXPJiFXcHs2ieSIXaYsOZfNL6zJ5ylvemu7uDhhCye4maZhhU9kVxKAZg0yg0QLav5z5YHjg7PHS5bZnuZIoB7vUjFgK8tLIK2Yuu57TFozAgbvDKmF1kJlBNwYzJslJOtstG6wxWiU1JdMM5xenkLvxIJxdpP8Cokb8k4zqcrsg2zK3MshEy8RH6kGtg0u7m9OxYx+ZDO2yW1s4ZsIa8LRHCEY2ioC+h2uIhs2GqYvZopVmx/c8NAEOe+BwJjnmI6v1cCLbGxJybU2znPV+FK4x5+viUjCOSxMTaNG4AaPt7dZkfKmD1A8GY0Odq1g9r+3u7s9ldGb3sXy9Rb5knPXyihErpxNuQ3MB5cSmxoUshICdiNan+3s1xB+vCz2I67xDCw1SrT16sRFY7VHLzTZAZxHv/4aiRcdkCLXh/44yCOePzi5Af0WW0i1wISE3FNhb3R6NwzNWApEphAWOGY2KNKoDfCwiZ8KyzQy6WY1w+TF6zmsrjEf4J7NLMvXdabC/KRG3TcgEwSFML7Ho9qYTFrBtaXl/sj2WC0G518myXBlFvbgoZDGoVdvtcly/MYhYgnZyc1sx1nLVe/ub41G0AzNpWLrbnXbDwW497Z404h1uJFfDfZX1HIs6mMuwU60UVq3t4CI9Rc8csSgzPtZCFxb17cp8N+78P+KMiRiMg8yMxFUsa/uEBENqvL1rpSd4LsbbM5sCCz83w0Tui2uYT92+Akni9i1Fe7NwMIRiOdqZXkTWOKylEAkOZZVCvtIVf9AYyNpkW7xu096G0sN9u4Cp7LXx3aZSUAkPRlvxxXQc75ZAhrk812VCSybY5hkcIXAJlZJnDUvFTuwCYiVc5XL5bN8cXvShRtjAJMPZCsV1lo7RMPTakPkYbY8w1WgutSzPj7AdtZAhO3zb2fyuMFAryS2n4tYjviLRAiclnuTii5IccXrGEVPmXTYhLjhETL9kH5EBLbsOlHCTzmNfZNNEnzGe9IZWklHLRSK3DvbyTy5g3FMUfRkDO4akJkGqWqUfP5S6nLyIorGRiZZ53maCNlw+gShTVDlWqOaAo4mRoaFShWZxgxipCScr7oDcSy8dnDWBWU/SPrFrQ5Bzl0HmqjXvc96R4yKcmU4xPVDE7+4gUEFn3QSaCea1Ydtv39XfuBuEZ2sGHJBY3hGnrGh/e5t7Bpb9SFx40zVW1hYe2Vz2jTnxIJWLDs6LsTCeNfNPlrOoqPZnWArkWvtz8S7EAVRaYaeYDnZx2WPIL0OxNp1tsXDlSQzG50IEeoX9qbgZTcf789Dt0liqreyoPqXVEdfljXXXpPJqa/2m77sLnGL9bPFcAKDrxueUVxLY47kM5B5lDgTKwxAnSzc32d8NWPRMRKTwy9xC5+gYWWwgywCX5Pw+pm3mcjg89It5XNkTizebqHvV6jrmHAUwBxAa0QmreO/ItTFMEFzEFCBw8z54RWFkFpwn61pgnvBMAgG70nm5m7DKKG+KSLjI6LTOCMZzL21z/tqafRyUJ1zb6ghUcK9BljBDmHzDL7NR2basmY33arc7xXubEDBHDFLmnN5HgnFVIuYiXvfkPZkmW+Su27B7KDqiAmF0VuaGIdzvV/pnqz5rsVqrV/qttb4t5uaE+1v72JkRsk7PuRKp6BVnW0kvcJQRYnFyHikSGMAAZ7LeaIIz1Iltdc7a/DruN3X3ZyN6qIejaG88uGTU+Ki4QSZrtJb+t8f7nGVda3smgySphovEQZIKF+xA26asE44HnDB2bIX8nkHaCruEElhMgCwkM9WA+POVcBxyIEEJ84398XwkrYeztVE4Hm7YqWCCtlgKyB5l0Nl7SC4fGaC4h42BRDhU+p7CvcAQU0viOXuas+YTKB9b0EJiW5ekTn/hCnU5acCfDPfEC0cMoQNlH6MbeEN78eRvchtpe/JlFlVSGYBVPm5LLUaTIbdrkWqQWFqRfAAk5Vx51ioVbpPpF1bP6DK3BjHKvoqI35TYqo2R7RzNRCCFywu97CpMqFEDjA9ajFj8eql11toOFlTRiYZNtWMf86e17DL0km3H3CqiqkC6OJm4HRFbxTlvfslS3+AWq/C2i1VzIWTuo73kyVWO25B+jM5LJikqNIr3J0XsePenRcuWZVK6UuZOy+/0uZCo9WSxrCbm4IgYCMRob12Pmhx3ges0lJ3yY2tA/bVio2aeIR03WXdhdsJkzsaNn2Sh+mlfTtX9LprETX+xzAoGcxWTxh6bIq62iHax4l6QXWMRDfvo51qbM71y29Z1Lalsrt2uv1y+ytNzEfFLmeK0lLkfDzZDOXjrPUs5wrd7mIOV81cb04PQOV3T8fCMWcIco7Bva4ntytJWR0TxZpdqBA+pEk332biM+g9F/W2+fMhfxZcKx9K4GAVWOPp2AZswsdVobzttakyZs0A5gXsmapA/OxqeDzGt6DOL3+MAaurSpD8cESCQAeTnI0zLfLC7V4um997DdQ2s2UVnEApnBiXE4bAoUbjcFl5pnMlLQazSuYovPwtCzupslQvtUqvYEdXX5umLqJLHBnDBERfr7apcbckrE9ECIG1ejrsfg3gBq4WpCJgRbC+ejrNLpR6WnpQ76gyBHYqOTEa9jtlsMlTiAhMspvfleOs0p2kb1Xv63s4gCtWS8gxgkffssVnFzx2er3KZrCV4xly6f0QZ/9ai7p1YuRcktahnjqK2Pe/I0Q/L/DbN2YCD1570GNr3euNUN0zfX+5hZjJIpzDqFZ7+MbdF/IbdZrGYy+oOB9r2wlEUTLfnbicIpIhG364JW04nvb0hE+Y68gvg1kbjcUzzE+StAxVjfgpM68AeZyQVmxiXfcn2oMvY1d9p7qpMtrIwtN+IHQDgn9NI4Aq7/xc1Z71MUepKfEFzT3XIHXifN30+B51gn6XApM9Cs3GYDU44/Rl2+qAxnU7GI2K/40txC59i894h/CDBaDteJPcgwUKHzgzbFLwhLkhGbNA/E6Ody5gUvDkpMMe9tOBn4wLxGlP0W2J0pj84sLYblP+qjgxyCFJIuF9TH7YCNzhLGJf8QaZEOiy4j2RwtlOC/cMMVnokuI9mjhftAdYh4o5U/6a+Yg9LCSm9fD/qEbDKbAgGnfhruh1n29ZWXtoQ36Y1G6II6oU5/ffxXBvvKZ3s92n1ArgZ7OJ6+TdASYVsEOI7sgUb8Lcq8p0WnVjQjK69X3NtGxn6RUV9hd6PIw1wzzbyRu4RsMe9Ryn+XBzMQEyy8D8R5800/6k44rYXZ8yy/SQSK9/JoP4spgsTx+woF4D2tqO8WOlfUi4i1Eq4HanPevphHLkMGlFG6Ln+fs8NUAb8Fq2+Pc1aAyFTIXG4IMGrRzz9b6cHZp1zJrcFZgA/uNh0EW/x/ERixZH6jKdfxkGe66jiLCztbzJZ4nf+QhL/CCSIwtWs/pJeQBFX+YDWXzbm15xe3qzVNM7YLu7FFeqy7amC+k1zd+NOStfFsCWuYZgH52eDvR2xzThrq+r6QyhLeDrBxk/CVtUNh3GW9MycZVTkJjD7u4evUY+7AtpW6CYlGyi9hInVU9TjL0Na4p7gy2w06nr1hBi2RRuSzcSlb1RPXMRYsrPs63HgnY6lOVv8rSKhJlsQ92BfG8O26NsMO5n0V2v1lDhjyx50mtF1WBaL+o9G8iZyOSEgsLs7ndQlyrBPCIfp/ncLpXgWD833BxyKUooXsoASksqIVRfKONjaslTflaWy+53IK0vyoiwJBkVuBUF/dxYd4KGwpB4IZ1OKXpwtau7bx3z2IeGe+p4rFDodUDP1kiuUEq82Xoaaq+/NFpflod8BN6sZXLJlPaS+T7MTY4Fi5mP105YyWfcfgmLAeOwtyc3q/VyZT7AD59sc/5CnYaTVH8XoOvIh/8ccjx6qM/USZfgrdj7TO9aYc3s+s4gyrsXrPfU3nsxSD6eubuIZcT+W1e9z2X+ew+6wNWl13Us+jLbWf5AUENZfKPmITi6h1Bty6q+0GAfh9qac+niqOoKK1Ku0frFpvDQajtJmf9TguvY2TVDPVq9hqFF1MOx0613KGOwbMwGWJQdarX0WEdgLxvYsW8iivzG9TV9xoC14NjWTyOpqkrGF3xRhVzhCHpXUor6ZMFVy1c51qMvYwucOUTgMF/M74XLveCZrCYq7+Ln07ZSkFlURsBa1bEiLsqsXEJZoTXDGuXqtp349s0W37FgY1jWXIW3VdWxFNlLBZXmatyTVyDgQ7sZ7Vd2czVuSpkUZ86Uepx6TyVqC+ywG7VdPULclGVvYsXnz47QnqcemOVscbONVpM7Gk9OsLX/AVrAoofjqLMLSfEto3JpIfVDrr3OwLemngim7oNqdh1CWcFvaXQ+nu+Ec9/rzWt+VRVia87blGClUdy+iLN2OXCCyPlHL6V493MYcplJHxD+kswQdEfQhilemFKXpfD7dvQKXHz5McyVGr0qJ0pKRbIV7KDsLFJ37kcM03Sl7PqUpyavNeRc/lzUZYdwZNeI3K+1H5VBY3DwUWn2RtzkV74LxVY0nAe4nHc72NkE/4tAyxAT5Uw5pxpRg3+CwTC4uOoouS+ZNDklTVmkZ9s84nG0qQb/ZoaWpBPmzDmmaSrBvcdjAzK9FYzezQvk5b4etyW79iUzm6jZ165XwVjXakfy4SYyMKilst8vYwuebvIwLy04fLmTzlmRsUO3BUPYISHazeUtCg6DKzASmxyxStaYeMsjT+/bHYlV1yeRtaUV9VJtsNem2Y0gDf2SLMNHGa0kLPmYLCCXgt51Wf2yz1vUg/3Gbb7ONsb8HoxdIrdPqbxfQpv0awY+ILn3eFmU7bosq6j+6op3ReOiqrs+m8guHv7MlrltmCsH+pwWsVQLQX7Bow8bwD8LxNsL5osXHGzVVVF39AOcjkB3czlkUPiBT/xCT/oMWbX691lS/ZXOuz26maOm3vd3RhEGH6tV59TuyOceZDyzUML1ARzhNzFVb/Sn3nMEE3V4f7LKWBjNZYJ/0UCB3oScnXOONf78sSHu3FkisOil4WVpQop3zqZ3D9P2ATlkZH+BDWv1YBtelFheFr82gKumd4Y/rcJD8Juh+9boMVRsfIJwdhIEJy9PpX+K0YCKbFBr6DufLFCU/wjuqfiXtK0EtuSD8qFbv0iyW+H6tS5Hqql/LNNUlLDXdl1l+T5ayMSDDf8Ym/bomE5dkRvBeibcQ1zd5dlmmdjyQW6P3ZRoIzEu3ACWbF83rODEyf5h2tZayjtQrc/qzaZGZCiRkImvqdTn1v7QN1RsX+p+0/rDLS+gOH8fG8/9Z67+IZSPneXhw0FP/mOJ8zthg/nuKqTNScxRXL/ZgnOBNbbZe9uH/kWKpb3H/nOLKaB2TZboaqX/V+v9Ny8TRSgLeL/LU/5cpYpjqJZ76H94giYtG6mWe/m8eh+1DXyY5pv6bNtge2uFMw6r6n8yCOVxc4fnH2zVdedTiDZYi7akvafUxb4LKH3qU8jat/oGuDkMuu7Yu1NnS9uVq5Mue+m5vjF+Kmh6MwouG9q059WrbZedu4sVqPCznKJcRD4sySvaeH8frHIbTNgqzycJiL1JvlbW8u2fYvSWn/kNcl2a4FDAL7L159Y/eRRNulTcxHLURWcjuon4ogy7bH7ovq1c6ZMVKINjfnM/C+Hfwb/bUD7vy8mCLs00RhhFzol7l8X9bUpvs7c+Te7F/8NRPuALZ1LkFYtm93mGq0wNsllGiN3nq32N7zhp8gKW/IHJn1D+NiGQ5IAbXDS5aLZmpDsnfOXaNcD4Yiij+0UNBLM4/EBmqv/f09zpMGz+CveRSI5zsW/P+JU9/n2fmuTO9GNvgSL3HU++0aKzX/u5koeSXbAkVrFZFRAPVL1ukJT8r+5JB/woBP7diMVBjGch0sj0yl8wyEf/9svI2a2i0Ndrj8BYT/RMXeBIc2KWMIdWGmNr/TBBcTk2d6XRO9gsuG3cUSX8xrlU3JXIla9bFJzxE4oocQ7O9fNJT/zXG2yrtwX6ESftzj6k03eSk60/2d9dYicy9+hdP/T/W2FEgnY0L/tVT30VUiF0GtTpiAOsePGdgfrU/YUkxeSfSnC0uiXLbXcOfiDjFnp68DGmJy6EJfiJPs1Za9gr+qsuxltyPsE41DMnMPEDDFNy4iLFk9d0R46mPSCC5icTlbHFjLuaF+bqApYXglmzekrQ2UfaF71w8WT3pMM6S3o8SM9lZTw0P7qsux1ryc5y7hwStzYchaE89TT31EMoSPs8KIeC8Dy5Sn9b66xdRlg5rQGDITEIkLsKz1NMWMZZsc2zUQQK1RPy0/oZM3lJs2aeFogPqTVrdnmZt+XAbpZJo+wUiL2YOmaroMqQlxuqYtqdrzIFWcsSPs5bgwI6lhNStXsT1ob4oETys6ee0flgjOaObogWUvVxHxkVIf2T7gPpJTLYcO4JdFtIOomFSH3F0RBki7lc3GZJtsSvCiYKNdQFg+POOkIlinrbMPQcyVd+q3gHbBEfvYfKL3I09RDxYHMBZOKmMxKTLk6N3Oi6J4fx7rd6tB+49wD9o9VvxpmQjooKumxnYcFtSgfDmhLoEqciaVf7nWv2OiXeODz1f+pgm7OkKxBMQwxMT0MvfjctS6dZEioxECD6uOeZeRlFMHwl9UqvfMwQoh7kIfFD9iZHFAKdhxn2JyNFd98jhpjjBQZQJkA3wU9YXLsOTJpGbzMdp9ZcpA7lxEQ6PwuDT+kJ4iejV+fNI9pGc+ow+mOLa+bITtHdmhDeR999o6ansXURIdkrh9nSGC0hwTAb4oP7PLjJfZ8+OcIT0f9FzpluCXSJ59aKc+q9MCB3daRG3Z53SUdyEKXaRyB8wHfketvxonvrkL/XC3c1waBi8OcfNGnG8nUaIuTWoL+W4VEMpmGeZZbrnNAnr/yNeNNrdG3N0it/7tQeTcCzDfZ032GIkJghV7Tbqsjxek1dv8yTW1cHiqNfm1c9niOruBvnt3oGQgDHNP5xX70gwZazO/i4jE792D2bqF5MyOS6WLgXst5S802M3jEsERyHeWF6/K4vlYPBerX41QXVCTuvoslHGf8mpdycl0hVzSxOpl+fVryX4LrM8aWIq6PinE2ywNd2D8pV5/ddsNcT0L6EiD6l3eerz3iZKhNw3YlJ6MZRe/K/DJaBfmMdFEys63d4OkPl+ZMaWV//Jw32bDAfx4hD0b3vqdx069jgE/SFPfZBDFzunEFou6nV59Xu4NZlLUGbsQx5zzoaLd/ZqT/0+PedwhFuyLdc2b8irP/GsZjH/Rgnp4Ls0W/aWWI2Ojc6m5utNeTbnmcXaTfyo+gtvON0iUEw8OMv7jXn1l/DmGgOxZW/vEaGnP+tF4nsUYXsQdnfC3bA+2jzD6j2qPmeUqTifz0abBFki9ba8+lszCjMDZii/nFf/Bf9zF58l+Qn3d6h/TlDuJ9vfqf6nt0EzqR/r5QbsNXtkkY3eheugPpVvBSgP99tILNcQrPSMAatVeeXHTbtqF3uB3L3rbmtdvoYk+H6M9Br2Yy+5XtNBeUcm2X6CLZgPga61Omfts4Alky8Vy2ccYtkgzKOjFZw6XEjjeFq/1VtCsgQlRvgZEhvEeIlBShHZH1LhaK0l1CgkI8uDCzJVLLYwilq2ms0v2XYrbgdYcMo9JMzC5jgp9+9YSWM3Ab3MqytRUE+jDzN5L/JWT+vFQp+SS7C6YKY7fQMWr5GKU/KUx9vhcajUpwgmOTkX2Vtw+nOQoREbk6xdS/EOT+U2FjDq1kYtCOwjGnX40Y+Wjz+ud+SbqunbGy9F1poV+7omFz8fit/w5O0LnLRWwSLci534Xa58YjSDtY/MlheR8QOzlUV08gJtdaMW1Ep1US77NKlS7MqTkqPxW6Zjycui48kHL6Up04n+4TGfWKQxrV9GdDIlsv24Mq9Tl5Fdmd1VpVanAkIaTER4tUO6mgn+Goc3LSbYax3WNpCgrzOfOGp2+/LZC7/TrZkXONdbUZZbPXmyl5mlGxq19PHYjfJCLM7cJCWJIG+WoiR3S6xSsh0le1WqvL+cUd4siU85GpzoKFhWFZtGosZCDepB5ZWB7H5DxQzvd8N7ocynQJiy2Oa4GbvqVXnh51ZYV7hyjMRQc2jM7jMpy/fC8lHpfIiE/WhIr9IHi5exFqcE8gzb91/G1tH4EKQsI5BYL69otry2awCyDKsPwOqycp/ClM2eK5CeWdIap2/jAcgjKvNMTsWfznXMsvtr2tiHk8Yy5T6FaWOCVB/x4pZiOsz1ZGB8CPu67oNQcP7DtDaZMTOvuTnhPU6E7Ggf9VT+YDq329vHPFXY3Y/YxyT3cU8tWdbdhNzTc4Hr4eQ8AWlMnyXYiDl4+KFzPCvsc1raSFhix6fs4BXpXESn5l24NSJIvUr2QJ6c4UVq9ulZ134+SDu67IFeJy/MsvJ3hJahO+ELO5ioc2ZBosKZtxadcFt5hQkysjaa7g/DbfrKOnjBdHdzFK4N7O84m1a8ua1s9WZS8dOINPsyuFC+Mp3KpzZUZW2olt8OdGoVzHw/MB9r7tMNOl9rVv1OrduXF6n2LagtyC20kD4aQd7xENxi/BzKsEBckVGvWOlN7LgIgSDEwXgjrpFjC84GXPJ7Rviuek3qFuYyW59HY7IjX96byXsjXH3DKyKKpVYWmjd4tlMJG1gYOySnEJt5tbYP720OxV2o3JU25Vcm5vsjRoQkOv6NB+LC4jbLfl9+eAFisXb7UN/QTZaeuMwme1TrkTuGyK+QHPYLnvZqGfQiE3jMpU9f9JSczxDVVyDuCiWz0Wq0UXGzoSv6i9smn7CV/mrrEflyqGMvtx+Mc1+eU+YHMKRaht33K6iFfVHtFbvsM1W/goZAIl/aC/r2e+lSjNPQYxeSlnpZvHuuuhjZVDn3uUCWX69ZLnZ9QG2+kOzejXq2Wmp8Ft7ZW3iDMyuaY1AuQNm0qpY7a3IyHYSCknClFc1ysdy1v4JSgS/uT9dMazq/FXZXJ46cQfYDv87eb0qdIwxUoKsiKedgZhvjaooTxnQm51tU28ORNQBdn6OROI+AbojZetJJ5a3uOZQbTbbOCAozjH9i/Yy2DM+85R5xYNCFyDQdDlsGRykrp2sffbAGlrnd3ga5gslh4+JGcbrL9sWUaLUqO+9i7F2d6p5r+0G5UzOf+FHltkyadl++8cqBmLvc6eJGMaHJyzmatHA6MDJeMs7lfYJabp/rVg1yZV3M5Wpg0EeCszXjPx4905Jnw0DHOr1AMMdLRfMNpxOcTuRbkGYhnqyJk05Uys+EUjFu9gVxXFhBa+JCdhcSYx2LxHrkG5WP+riRydpzSORkzZusWq+L9agTkxDGysuPAdE8uG3ujzFMZlJenGOG2DvwXkT68as3eb0dNvcJYMzI5UtpBZU3jp5ZKarXTDM68cbZWvp1+6mlnO3DxB4IvNUxoGHzcE5hVS5rl11R3qAn510OkYzqZTm1OlxEvTyncosoESPW4RU5lR9OL07Y8fDK5NSGWS6oAooXIYBwsnUpxS6JTJDtbN6ygb+CWpaXybPIdLq1XaccRVup2LPY4mj0YgekT1pKzQBVwWgAMlBORrFMdCK1GOMZR+i+XstYlVzVL1IMlA+uJA0Vf51V1c1nmHTHfM2MbX6RzLPFyhbjLmSLnbQwyw37UVVIlH9/Aqe/pRTKOBboFUayx2lmi8qvQndsQaRem9OLPwKKmFi8S/l0xy7EzvIh4ELC2TdcvOVR2kIXNBewqEaCWrhpRVeTgsxFa449ppvGAPHjLgsBFgjNogFSQVwtPCHqLe1KpKFKlBkU+eWkbxvuBNA1/iJzzcDfzY5cnk6Ig8BkMC6aXsh2OXAQQuBE7gjM8TfhVzQkyrs57Yb4P6xHxJniupByI+6lmOwoF+7D8ymN9N4OKDPKwFykHbpXlp8vysUq5YZNR378F2PsLfmKhDvGV4wUr14ecT6SNsimzrUrd1omtE1jR21/17julHK1qo+xfmYDS+BW3KY6PjcyjiVuRHJiEbchNk39a06dNBPmhPlGT52CnWu+Q+tzG2uKe8zdEHZx0puNa5NmeJHTD6irF1mrV+fUNYsos7qZvWtNY8GF0V53KiJGvtclqNKl4q5x7lfV9YjQznlENX1Dkk115DU5feOhrlopZPp60yGCWqzqB2HirkkI+OZEqQL6LXc7bXNxTijG7b4EZTMvzNPfqeFmuFVS4WJ6K8RInfHPxb+QwZqfaeJEcC5vEk6p140N0veXWvf38cuAvXZwN0mO7a9brsqZnlz+TLr2TEhJNuVIFTRqbbCurddjLap02r7Y9Lx989sg8xabCfcajI4+WotHU9lvsLfa5/qVntim2O+yxGI7pLLetflw2EMDa0P4egmqdClB5raJi54x7mg+sg29McdBLya1hDVkeVJMg8PGDCx+2WdTtFF977gbQzTb6hnIm4/mqBQtzeMPIdmC/EW5H0ZXCjs2VortCYVRF4lQvpzQ13axmNVBJL9aXdlmvaFNWZy4WgdouVwjHeEC8PwINZN9ifxRBJ+Z+GOmhQ1reY0AjqMx7gGBl9s3owIrJ1W0KHCBRUFxAoAwHTuoXJ15Y40nLxq8lX0zNh0PWtyQuGu5xa7krzi+whXGt7RIedbJ7bCAYimubNAduR7CwdkaTA4GkdzAhO5hIFvGHjdwY9dtFo9n8pVQFpqJ0tpK61YL8w35OwBsc1s22vpUpW25YVqfbg3MeDaVl0EHbHqsUvv5m+FhjpZT1Tzr6GAQqb7MQZjg+AWO69Bwut4z6xeuwSGbYB6dwMVdFyYm0+sy8SwtnOYDFpTE0s33IoBcu3pnOo/2pnOX9SJOXQ6ObUBS2c5mYWpzjuorMWCerQGqxSZqOnFleVethMHe4xA5rw3lVxaFpM0gtbNFU9G2bn5PiPe7hlOILnane7tTXLMtIt+ikfQHW5ex0eBQuEWc4YTqzdx9U4yXKB4OMVEGlHMaiGNS5vrnvK3gFSyXJlRwpaVR1EYO9EL0JckEolJgcsyoHPplRyBeo/MDMwx5Imo24khWDrOKn4MVR0DDQFrE4m3iibgRVaQdJ/BIvSuHs54Y/8RRwwqmFxWq4xMLMXcdGukYh1l6tkkYxo4GazhlwzeNvRdXdBJeTDLeZdNSkWnJAcUTCIbpG0VVS1mbNMOLh4bAPA6Tzr0vx0EtPtPPRc5ytypcl2spOhY1Yo4kZ1rRh5uNuxcs8KF3Ucwng86bX0qqD2G5xe6VzQLDnkWL69CtXKeX5qG/TLHLm4NJENdAdFEMU5t5HeLJfcX6kg/iOh0zxE3MHFihas3K3AwPiB8R5Nt2dVA0hlEOx2NCsDXBLCUYjrQGs7w4p20zVJWTL8zW2PyMJhSJtVuQCECjUevajLdYlX3OvLZAMnuGCwKTp4PnmVN5qs1eFSsrZjCQySGwKj8vYzVGpmOxxPV4EM1jpbPc1ftRqsvRAWy4CP0wp7Ms+zxqj/1K+Oc2F/UwXgo1ToTyfTAvMvSJvcvFQ7O/ImW6Lm9aenSFjgZJjxxT14lIfZQjy0InjRkmpJuaeW7mYm5rIkvLknWwRKVEXpH6SE4vU0bwx34cgegXioDJQeDsPGwqXZv3NuRkksaI5Lgg3nc4LBPfQAOoUg3x6jbDwZwpZf37EgQz8SxV4tYkyekeOzONSoe82yJaps+IcxnNj5nSU885hcRoJWjyPJa4bKDW1y/Irmh2z7exmnfpZ6jenlPpYlAP6pXpJg0dME6M3eowZMcOm5bnEWwB5sFsZpF6R04ftSKON7BIvTMnn/Fzpr9lJ5kLmZw+TlMzentUnTBzFtNUrSFgJZxcwLevsOVQ/UE5ATiSmH1FJItJvWqPXKo0kfpYTl+9lZmlj+P5HyzMxydy6lqW/dkZQStkd518lHMN/ztgtlEira7PmKTYtEXqt3P6hjkT7EzRB3LqRskGiRQ/mFM3JZNSNFtHwETdvM29fdSadCF2dbW6ZSeZ/0/m1K3J8IJ0oysarhXp8btz+jEHoytsa+/J6dsSWTECuez3x6F4tZaKVZ7MgR5MppNLMv+9GGVcDyBMHQaD00dk+bKNBkw6wajB3s59++HsUhojXXTam13iH9zrcWVq/tSNPlQPMxCx9Yrr2aQtWuLgsofFYf1vxjw/jSWRUtvnKJkpT2+OUUwTIXNmAsW3QsTNYsyInVO70XXrporU3d3NCru6vQfB9szBd8Jda6ztFQyqhlMN3mRzcyCRyrLK01BJzg8FHDm5vlkmhoSedlgISHkYgO1CzcB290zl5QhUT74rhj/fSO9/MC1pF6ggGgkRjUsFIJbsV+bMXh3Mp3t46bBIvI1Zc7rLkcCO31swC6OoLKpLKE9qEJtwNWyHFmknKZcvYDpZ4pCWZtPBcItOcbO2QL21KPfPUWNOX2fq80zfXtyO+iKhmb14IbezaHvZpv4OK9SAMbJQ3uOESvQm25THejaAeXfgtEI94mmjzHH+z3O6MBLe0qErKv+ncupxRoPUS7ReEqg0iDAudv+5Te6NBmNn5pYHW1t0QeXVSiShwwBn0ZasxvmudPU56kicL7P705hBP1cdNZ/koNsFdcyATmOJfZjsWnIsPWEbbg8ujRE1iJPRwqKRC9HP5PSpzOCTJfHZnLpqG04b9sDHMK423GsoGquM/eVSa38eiSgmW2NMNKEZ2dTQhWsMYRuxswU9qK5FUwgnYQDH7IXj3mQo5mXrgvqHnL7eoDphBnXDZqwXkfp7Ah2zcMvauiD89v0QjXOB5GV1k2mnNEMNd/CnOYCv0WE79JtNmU/khBi4yO01nrplTw4BlyZbReYREwTZrcmv17ndC83xRL5L+Rgc0/kleZJXs3d2dbrECB5bGW1vl3f2JeRwNCM19jJt3aKl5GNJTYpRJbZK4/kZUeQt7Oa7YHO1qMb0SsyeFpa2hHtUND8DRKbdHaQnKJpY3iQCJuJHF6oj1HG2tXOJJvTK3uW41SsRx+M7sndl/FEZX6wu3HczhHiEsLRGUlScMTo5ROofcXwkW5L2hCy/KVDbtNBc5FDYuxJ2qRO/ZTQzpTz3h3wqfRJj7FX8xy91QloRJfUIzABX7WFfz+JCw+efsRvxHifUBqlW5FrTLzZhptbqraJsLzroyp/UAfKK9Zr5+8L24gtAvhfW8QP3Z0ILDXNtt5S9Pl6OG+mE9qSYNrb0lRtL2rBcC1muSzHX4sTezrDPPMpt7lHlbTNjLof7TUx+EEmAOW/cNIt/niqED+3NMD3ovkW9OI+b5u5g1Uvz7C7uzaDFvIurirgXtWELPhYW10he56LS6XMXMjTIfZHNZmjeo5V8Tc+1nMRv1VXy9im5iXR/stFmNRKXv8Zl/6aZvQYyt6Pu78dWaqIQQHn/vl6xLhNWaLa4qZUcmSXuZuUP0hrJLyeZPleZMcnKekf+PnXHFJBfzeazhEfsnz85ambqGK2QHLdzWFuT3pygVtP+zb6T9Nd8tqlfb7XOmMvmU+nQkVaYZBI5vCiv5HW4Qxdn5/dlYzGx30R9G/EkmZAoE46cJftwPlVxaJRn8azRfPpISdQR78iUSNRbD0EY/fwyK4R2F5X2X9hk46oBN9CsVWqPxHzpiTVcOBULDxcSemGyIe1wj5E8uXnFob5YAp9SnDZvF/4oPMwPMjQLIzPvRGUi5HUG4Vtf5ts8SzDBZXtNyOF18RmaZx57pe+6cutmkeWFizz0EJrCWqfY8E2W3FJg/kK3yy2bBlxmhQlvmY+UmVtiNpH54KE2Vxrb8iiL+3ZfviKpUJWO/XvQetSSBjx7DT0Yb2DOcUDdBLFXa7knlvfWqh5fwBU73Vq5Lo1o+Uumdil4zeIGSa7oPsiZr8ofVChU7+Tfpepd/LtcvZt/V6ryRxRWq/fw75GqnOtktEeT279jay0uBAU6zrpjfQWAJ4TmZFWwp7ByJFctXB5ebV6AXNOTf69t+M0e6XV1+asy11cEd0Oly783VmTEN63V1nuGx81A5WLbDeCWBo476a0sWpLHyEuc2/wG/z5WhGos4eOCBtMC8Hjp1RO4NBQ+T7yPf55UWZPaX1UslaSbT3Z371/dkZa/piMD+Fr3vucp8qcKSb9O/pI66VNZjSRfH9i/n/60MyXp5zdgakhuD4yA7pDB3CmIu2Rwd7s/nvP0kvnbOfeUKjIzzwjaxkbca7rwzLMmeVa7Vu7aAX9j0Op1zBe+nl1ryHi+iZO2jPA59WLJ/BHbb47/nvdzS71u18ilaB9VAJWk/+7yFvXuxpNXAbYy9EUXixgo4LVWr2t5rXNlgtUyM1ltQCPdkr9ZW6/Y79+ervvr9vHKGbGjHXnQr54Xq1vTXsPcXWzbuxDb1G2lovx9aKAy4aB23WfaaVpkXnGrrdZcEwa+G+Sam+B1NFU+02r5VAk1WKgW+MWO+VNTp7PvTY6n6v5YNsJeo5no6hM5+XHYc5yeVKnJy9OW6cOTK+nHW786FtRTpSb2GPDr7QQ8zYnzdknRJunnHfgU0os7seHS6tPR+Ow3gZ/RMX8A+16SmPEzgYW36dWzuvLmB+A5XXb1ktGtYjKdulz1y2e43QL25MuiZd9odK5uX8nk6XTP9aQQw5k6SzFODJiIdzmZ/ZV4nm2bqzHFkaDc4WLNYo+aL9IJdCJo15pJv07Sa5KrSFBio4xXizbZVq/pdnxfWgW+lvkutSz+OhkB6fUiP4u6QTpIeqOkts2bTE9iYd1ME0IOeIuwJb1VUsfqMSI1dnDAUpHbQKE7U2/JbNUbxc59PVOjYR9QAaFnDTOelqGu1IqWuJ1A91nFst07Zq8RgU4tmLDHpZbo8W5KnlBh5TncV/mNdhXbKi1+zZpvQp9fi/2yC/spLB+/Y/6s29fVmgHdsLW+IV5td4k+mxc+ZO4JYnv2jdgYJse+CHo2loZYe5z9JmqKuL9Zxkf63NjJ7YimocXmr24HceZOMt04cxeZXpy5m8xGnHk6GaOqkrmHzP2SMX08l1j+B2QPsVP3LekO862yft3SJvttMo1+38nqQXbRdWNM+o1Dv0/x9DAaluVXieabaebjhCaCYj2RkA1etv9H2P6zRT54Nn7zhXfZ9rcFz2nOxH8bU44SI+ITh896ubJ4sm33YxTutux3m1X63WYyukIETLynReIcZrBo/sDyFT73TM4rX/HHMYSKrIVU5nF6N/3DpdoAgpESEF4R85r8xCX12AsLHnvmHSRO0yGffTRxcIGwkCEszmYDx+ioLiy0IC6Scdbk09/JCQP1Y/YBdHzW8GpmSnO2JH4glL+MF37YXNi9BV/0wLT4ZvyvBTLzq6Z0Vt/OrF5W7lPI1HqDGMkwHb+3wq966EdSMXmsCTvZcvV67/IamQ68gw74HO+Nc2hjTjqM81SQGPK7sjQGB1Fk0ndni+iDGf57GP54YH/h5iWlXSlSS7XmBpu02Adcz6DbZ4s1Zk/3sAukXrveWzcbYS44F1iTmsdqd/vFtvgShcDqVRuPW55jSI9zRB7G27WhOqk4z+3u4VDKiekkAS+Xa1qPO/f/A5wrAADtm3l0VUW2/+vem4QQBlGQBBmMiIoCCbY4YXKD2olIK4LatC0EjRAkNgQNN4oDyJAEMFFxBG21IQHEAQ2KNt4MIjigIpKIgigOiJjQ2Coijq2/z7fOudeiV6/33vq9f3q91a51rZ361t61p9pVp84hEAiakGm/Zvbd37TvMC9gNswPrN3Q8dqLJ1w44ZyLRo4cN/mUC867IXd80YRpEweazqaLCRxuupueJiEhYEzQJAQSfztlXOnkwuKISQok32yMaWvaq+E/23QyDUFjAsbOY44yCcHEEQVXFqaf+F+N7yzykMB1Ygxaxt5iPLc4UlhSXDAp/YLiSdenn11QfG3BVJNk/nsxtwVQINRGkgKo0CHxzCsLi8cXTC5C7ynp4wvTz5xaOHVKyfqVBVPTzxxXMH79I5OLxhVMHfz74vSpRVMjhZML0q8pLUy/urBkclGkML0gvXBqpHR8UQH6TE2/umTKlSUFkwtK0hFSNKWYLiRGSiNWYPqU9AL6PbogLjt93JRicU4QBMcUj6FwasZ5U6YeLL60cHxhcfq1hSXpkwrSxxdNvXpKcdEVRZOKxheM10STGF9UPDVSUjrOCki/Pr1wUuGVRSXpE6eUFJQUATPXtYXFMrZwav/0gvGFk9cvQfCU8SXrlxTHRhdOSo8UXW29MbWw5NqicUVT0vvGVe+fPm4Sf6RfWVJ6dcGk/umRgkmTCktopTX48Rm5k+K+spJXFqDWuEmliJ5QWow03zHFUyJFE/DAuKL1TxejbEnhuCkl4wsQw4Tg44oiBVMzzOGzjZmZTsL0LTdmQfB4G3tzYeGVpZMKSow5IfCfECJYjv63DWHCXGMuJHr7E5MDZnZL9Y3Bueb23FBRt/xIAtH9qA3/uzzRJA1ilc+JNK0EvuGUEJ0fOfCgpKuAy6Itw4HruoXmgDjwVUn3s7SFvww+6uJQmTETHfz+QNJWDSgfEzmSAaN/Hyr7+ZcPnQFbA0l3B70Boxnw5IWh8p9/6ecMuDuY9LY/YCEDtpylAVc6A94OJi2grmjAW8E55stPNKDGGbAglHRvyPCjmFk/hIzQmZg+oyrjUhMIBGebmSEXCSTNMOY0iqaQz10kKJ4TqGZMNXOCi4SSZuyp7mcCCSCb33GRhKQZkaZsE0gMlpnk41wkMWnGwGi6CSSBpOe7SFLSjLzUBhNoA7Kg1kXaJN10bdOn0q3MXPKKiyTHdSszp/3iIm193ZKD5aa2u4ukJE1Py4+YQFuQbf1dpF3SjLGRE00gBeSmc12kfdJ0Y9A6AeSnUS7Swbc0CLIx4iIdfd0krX6BixziSzMgWQ+5SCfxEJ92II83usihsqedN8/arS5ymHiYRzy1X7tIZ5+nbbDCXJHkIl18S9uDrO7iIocnTc9LnW4CHUCqe7pIVz8KiSAXH+0iqX5M24FsH+giab4GKSDjs12kW9wHFabPb13kCNmDDzqCjLnYRbrL1z09DV4scJEevgYJIMOmuEhP8WSbwCEgv5nhIr00D35LAjmhykWOjGdihUla4iLpvg+k25rlLnKU5unp6Za+2kV6+7rJO8tfcJGjfe90Ahm4yUX6JE2vyjjCBA4F2bjFRY4Rz43K+Apz724XOVZIP8/Xi/e7yHG+r6XB5T+6SF/xtJOlc803IRc53re0HcimJBc5wedJBuncwUX6+SsrCJJ/qIv0j/t6rvljmosM8H2dCPJKbxfJ8P2WAnLL8S6S6dtzGMie/i4y0K9inUEGD3KRE5Xxx3u6nXSGi/zG103zZJ7lIif583QJ2t0i1j3InyQYnGXMFhc52RfVXkX0VRc5xV9WSZTKgf1d5FTfAW1AOr3lIqf5IUimuI04SIPT444uM4t7u8hgX4MUkJmXusgZvjEqyTNLXSQr7ugys+gxF8n2eTTPopddJOzP0w5k2s8ukhNPj3IzIs1FhvhadwZZe7yLnOkHR+V1aa6LnKVllS3vlJvIOBc52/dOIsi2Yhf5rW9PCGTXfBfJlW79PN2+W+Yieb5uKq/pf3WRc+KWlv9TfIZKWjv5rdz02esi5/p+6wKy9HsXGebnjgpvSTsX+Z2fISrWP3R2kfPkHYp1AOS8g6J9viNt70AXGe5LUznafrqLXOB7R2Xv8nNcZISfieLJGuMiI30ezbOuyEUu9OdR0aktcZGLfB+o6Fx9vYtc7PstCPJDuYv8Pu7rCrPvLhcZ5fOoJN+02EX+4OeB/Jax3EUu8f2mUjlztYv8UdL6eRrcss5FLnU0mL3ZRUaLp51nafsdLjLGt1Sbz8ZPXCTfz17Ns3qfi4z151HRGWVc5DJfmsrrsyEXudzPURW3w5JdpECWsn7E0+4QF7nC52kL8vvOLjJOPHinPciMI1xkvB/TDiDf9HKRQt/XKtabjnKRCX6GyJ47+rrIlb490uCrfi4y0ddAPEec5CJFPk9iUOfs4bHuq/xJ2lF419a6yJ/84Oj0apa4yCTf0e0or0OGuMhkn6ctyIKlLlLsK9ae4ragnYtMibumzAzNdJGr464pM53yXOQaX2uV1743uUhJ3EyQhS4y1efpCDLkDReJKKV6iqfcXB1wkVKfR0X0ph4ucq14snUGKjfnDXaR63zvJIFkjXKRaX4xUOHdf7OLXO9b2hHkkkoXuUHz9PR067vcRW70dVOpHPSCi9zk+0DSVm9ykem+NJ3Ty1pdZIYfHy3sLiEXuVkx7ad5KkyvQ11kZsCfqAvQB6kuNCvglNEZx7rQbLhswFVdkg4K+By4rBaHA12S7UJlcI2NXKN0rDCRXBcqh8t6XAVm0kUuVAHkJ2SFOXCZC80FsnNJw6HFLjSPuayGmmvztS40H674XBvKXOgWIDuXHHXhHS5UiUDrKKlx2CIXqoLLqiGu8ctd6NYYVzJQn5UudBuQrUGdgd5/xoVutwJt4aowm9a70IIYl9S4YqML3WG5UEPeWL3dhe6EK+6NrE9c6C644t4Y9JUL3Q1kvdEVqPEfLnQPAu1JPJUiNSDoQvfCZU1WZfs82YUWAlkNdXru2smFFgHZuVT1Rnd1ofuYywrkApL+l2P93CjENJ9lzPMu9GcgKy2Zwpe+woUeQJp1YOcgT+fdXOhBuKzb9eB++XwXegjI1go9hY84SI2/BPyFr3KVphUUhxbDZde3nsMHnu9CS4DsktQp9pJyF6qOaajj5YqHXagGLt/kMjPvQxdaCmRNVi3ZluxCyxBoHahz1yXybRxaDpdd4zp8LjrJhR4Gst7Q2e+mC1xoBZBVQzV10p9c6BEg6yhxZR3kw0eBLJcOoP2XudBjQNYbUn6ICmEcejymfBrQ2k0utBKuvNSe3lzzWlzoCSA7l9ZClvIzDj2JQLsWtFpPaOdCtUB2rm5Aew51oVW/RrnCPHBQlJ9iLhtlCex9jAs9HROoM9DOfi60Gi7rKB3dXhvsQs/E5tKSvGmICz0Ll42yynXSQRn1VyAbSlWG5aNdaA2QXXfaGb4rcqHngKznpUZwmgtFY2ocAbR6ugvVwRVX/oEqF6qPccmHw+90oYYYJC6zyIUaY5Ac9dSDLvR8bC55/v7HXWgtkPW8uNKjLvQCkOVSUJJfdaF1blA2vOlC62NcqpO1H7jQi0A2oyRwxV4XeikmUCZP/NqFXo7ZpaAc8b0LvYJAGxQVw2dDLrQByEZZxfDHti70amwuXU2M7uBCr8XmCgENUnWNQ69bgf28uU4/KHs3WqidChEH3p4u9AZz2UKks/D2o1xoE5BdRDp0jzzWhd5EoK0bHYGGDXChzUD27KK5fj7JhZoQaOfSrjH0NBdqhss6Smpck+NCb8Fl1dD1xTNnu9AWuGy8ZPKqYS70NpA1We49MMKF3kGgdW/3oK6Rj4z1b4XFlpoU9pqZj7nQthiLDtlrz3Shd+GyOnQLzjGLO7nQ9liwgkADwy70XowrAPTlShd6H8iucW1D0w51oR0xgTqdD+nrQh+gofWSjtrf/c6FPgSyyvcQNMGFPmKupZUZikiZqf2LC30M5EcErm0utBOBdi7thrU/udAncNnV2p5yPb6bC+2KcelYPaSfC30as0vn3aWnuNBuBFo1dAcx9CIX+gzID3G5GTPJhVqYy5qso/X717tQK1w2PzXX43e70B4gO5c2rxGrXOhvQHZxaYeKbHShvUA2bbRDZe12oc+BbJRVk7sGXOjvQFag6mT6IS70RcwbKlDNXVzoS7jiAl/r7UJfAVmBOk9uGehC+/CGXXcSOPF0F/oaLitQ29Dl57jQfiDr3p5Aew7y/DcIXFrZS56vMEsvdaEDQNbzquTjC1zoWwTa3FBN3lPsQt8BxWty83QX+h7IaqhLm9cqXegHIPug1gto+WIX+hHIziW7+j/hQj8BWbuk/LNRF/pHTHntvNe+4EI/w2VXpYp8180u9AuQTRvZNfEDF5oZ9O3SEWXE5y40K+gvBykfPuBCs+GyyqvI7wy40BwgG2WVtc+SXagMgVZ51clz2rtQOVzWh92Azu7sQhXBeLLNNT26utDcGFcAKK2nC80Dst7QDjWxjwvNjwlUJT/zOBe6BQ2tyVJ+TT8XqgSKK5+W6UJVzGXVkPJdTnGhW2NzSeDnp7nQbTGB2obOz3Kh24HscpDyjwxxoQUxgV2AZp/tQneghjVZm1fzMBe6E8gmgNT4caQL3cVcVo0Eu9eMjvXzntNLDHuRvsOF7gGy9qaw15hNLnRvTJpudExPF1oIl81q7TUjZrnQIiArsD1Qp69c6D4E2oikUcm3HSTwfrhsWdM2ZAtvHPpzzEu6oul0lQs9AJetruKyG0ocejDGpb1m2rMu9BBcvgPLzNovXOgvaGhNPpLqenmiCy0GiraUqNSUmxe7utASBNoVpF1j84kuVA3kO4or8mEuVANkHSWuLRNcaCmQ5dKu0XKzCy0Dsspry6t6wIWWo6F1bwegiU+40MMxb0j5jc+50AoEWuV7Am3b4kKPINAvvFxn7XShR4Gso7TlbTzIh48h0AZFZ9fhB/nw8V/V4LjezoVWwmXVUAmtSHOhJ4CsN1SuOx3jQk8CWR+quiaf5EK1MQ11mb/hdBdaBZddXKqTE4e60FNwWR/qCmXUSBd6Gi57ClW5HnqZC60GsgJlV8tkF3oGyNolbxTf6ELPxryhLS/9oEX0V9TwPc9bhbkutAbI2qWd9/7bXOg5IFtqpMaFC10o6qqxbakL1cXUEHTLoy5UH4Pk+axaF2pAoPW8fDio0YUaUcP6UHZVv+RCzwPF7Rqz0YXWAsXt6vGWC70AZO1SULa850LrUMMGRVwvt7rQ+hiX9tBL97nQi5bLLiK9FHChl+CyyutO/o0EF3o55g1dyi9v40KvINC6Nx2oqKMLbUCgrRtdgdYd5kKvAtkrr6OAOh1UUl5DYFXGbxSUuSbroFL5ekwN1f/D011oIwKtD/WEUnq0C72BQLuItA1Fj3ehTTGB4rqrvwu9GePSvrbtNy60mbmse7WH9j7VhZrgsrmhl9C9wi7UDGQPUfJh1UFL7y0g60PZdcEFLrSFuaxdvB+mf2Gs/21Y7Lprq31NtSsOvQNkQ5zAvpb+pgttBbK7oXaozWNdaBsT+dHnJcZyF3o35qVEoM3Kzzi0HYG+5mWo6ULvIZAuuR3oDBd6PyZQV3kbVGri0A4E2nOXtrwv57vQB0B+deWVyfMu9GFMYGegS95xoY/gsstET0OdlLpx6OMYlzaUyGEutBPlrTdU/0f0caFPgKxdhwPZLS8O7QKyd/K6AOxxtgt9GlNDjzzmMhfaDeSbXG663OhCnwFZk6X8rntcqCWmvDbKoUtcqBUumwCaa2+DC+0BsnNpUzbbXehvQDZ1tSl/+Y0L7QWya0G1a/ZBPvwck603dCY/S8s/Dv0dLptsKqEn9HShL4DsXBLYu58LfRkTqCevnQe59yu4rPIqa3tzXGgfkDVZxTA83IW+RqBdrXoAPDDKhfbHfKjXKyvGuNA3cNlQimt4oQsdiHHpAx3zJxf6FjVsvLQNTZzmQt8B2ZUirr+Xu9D3QJZLc426y4V+iM3VGyj5Phf6ES5rshx16cMu9BOQdZTcO/4ZF/oHdln3dgfqU+9CP8NlD6LimvmqC/0S49KWN2SzC80M+SslCLRhmwvNCvlRlslrd7vQbCBrskLZd78LzQGydmmHyg64UFlsrgSgWYkuVA6XTTZV12/au1AFkPW8Kvmazi40F4E2N/SsEUxzoXlwxdXod6QLzYfLqqENpfpoF7ol5MdLAm881oUqYwJV5JcOcKEqBFr3yq6Eg3L+VrisXdprpp3mQrcBWfdKYCTHhW6PCexod423Yv0LYLFub6NdY6UL3RHTXG95FkuHOHQn0qyXEoHSG1zoLgRa3+pBae0wF7obyBaNrkCdnnShexCo3b9tIPBPH0AHb440nRzqsmXOzle+C/WfcNrmc7rO+PFvi0OHJJ2bYBIXJ5n2gYDRB+8Jpo1JNqZDoOPNAWMOuTdkZutjUzPzc31Ayjb1jj4K1eef7BW1bAqv6OPNclPbnaN+f97BnFtufhrFAT6iDye5T3qIS6pGXopsZczXvA1M4pq+C4e4nvoQkZPoQFZSNkvmt5zeLtangfoIUJ/7UduqeH2wRB/rcZhdzQ3JC/rUrsJs3KLP5yrM4v0V5vIfScvQXLMpSR+06dM1faQ217zSWx+e6ROzuWbwIH02pg/EzCz2dIx5levM/njvLfuezCzuXWZmXsqvtMwseozfyzzg/cwGlVZu1h7PjV4u+9g4DCxmt5ivz4/0oRHb3lv6eAj8e30QVGF+6KyPfKihGLX9dJQ7hzPuGH12w0V9iT6lYUy5Po/hlcliffJCQVjNEXkd5X9zhWm/A+M+wUH7dIbUhbs+FtFnIfoAhJvvIzC2F8YepQ819EmGPr7AqLW1xH8J54sh9nMIffigTxz0MYM+W9AHCmbIG/rogAj14MlrMJEhSvtv5l1bpV7469W+XuLrdb1ezOsVvN6166U6UcjUa3K9D9eLb8r9ZTyvFOudNbWpjCeDO/S6mUguJ5Ir9aZYr4SJ9kaM2Y4TPuFE/5Xez+pFLFcdyXq1yruBrihvnif7V5Ba3ewLTRsRXlHqXaReOurtIq8R8X4yynbVG0CMuEDv9DCCaPQnGkNQfi3Kz2thsiCpQzT2HMprHwzofQwbXj/u3gbj9SEYcz6pNFrvmPQyCQWnM66K3ehOtp1FerPDU9DjpFyUreFVDHyT6H3ARraXvedrvSHxIvNjWwwg5QZhyOmpRKenXkDoTYNeKejdgV4S6G2Arv11v6+LfAye+dhs7uB12U4ahnV9TrodSoT6clH9O34TdPVAu432J3sNrftmXSzrIkNXxboT1uWvbnl1ncu9Lbd6AZQ+hPvHLhjbm+eagSh8upeGey7SRScRKoAmcs3TGVOJIxbrelH3iLowRMZmeDB2xOfs9wd0e6drOt3H6eJNN2xcb2HoxD66HKPuk4JpmbrXIqoYe36WrqR096RLJpw0EoPNDtJzk258dLXDuvtKlzWk6EWk6FUYibHTni3TzYmuSHQXohOgbjd0jaH7Cl1M6AZCVw26U9DlAbcERC2RqLXTA76e5InYSUQMoycOZc8fSZqSqi2T9aCMc2axLucS3dtI2YV6amXtPUrG1JKejRSllyhCG/WsiPPe09MfJwB/Lb6RoCc0PYrpmUsPV3qK0uOSnov0AKQnHT3S6NlFDyl6GtFjhxxA0Ul/kxQfyxpdTvsWR/d0fmfonK4DOWv2edL9HYpKGyJ6GJHt4zmB864OtjrB6qiqM6kOnzplcpykcLTRAZGU70mq9yPVT6QA5RC94azTUaQtBWh4IU76E06ZpjMSjrkLR92HcQ+TEc+wZuspRK/qCILztlVwqNDpQccEnQcoOu2JNNEPpmnP1uasXVjbrfZVbaDaKWXoSm1yGNswh22LSD/ZmY3FmJsDMwOBWQEzO2DmBExZwJQHTEXAzA2YeQEzP2CWsfu8FjCvBxLeCJhNjAiahcFAUoDNSP8qq61pF/vXId6/25oXmDnL/tOt+YG1L3Tw/v3WEfq7Z7CXOdIcG0Aef6knpP8lBBID5jizMGB6mI6BbrPo6m6OMf1NhilnYNLRswImMDbyVTaACY6NNGXRmmBp0z3hqozBOcG0/Bc9oqby2BwQE4y2dPSImsonwpnRHjnB1urHPCImxwRaq7uH8yN3hINVGUk5caKu5cIwo7uH44Qg83CiCVCAwnmp+Y2h0qZrLJGXmhvOSz2/MZSWn8aw7Ma81G+yW6uPbgxVZUSzqzJSGptzF9JuxwGmU5jjRENIEjOjixryIwPCxqxtCDXn5kC0NFRljA3XVAYbQ2Mj0xF2aKOmU8t0z1mitOnN8NjIxw10fBo2ZnGD2mhL73pc8Sm8m7KxYKclELKDIbXZmdEtDJmdjUYbw3mpA7C9XiOyQsY8Hm6tbpeVGV1gW6TmW8KYvrD0zg7lpX6ajfHZNZXLs0ubEsMIHZld13IWSozMzku91eswZg2ClzFiqzo+hviWGY5FVkIOnhmD7h2sf9WGMqOPWyIzWs8syTmhupaNdCTkjI28jeB/hNH0A8K5jwDs5LcnHGzO/exXAg0V8eScOMHhqp55RNTiRZOTl5rYiJQv0eI3jXJAa/U5jaH8yHPomd8ot9o2UFN5L9Bj2TDXWqIqYx0Tbc/GN1sYkxhuzt2BbieGQzWVu8Pyj9diuQh5UH7OS10fRsYWtN7OiHWwfRbG0Foivp+Oe20Ly7WWqMq4kM7dYVTMCGdGtyGnB7O8oI4U0Ef5pXiziBgbKYCtByMHhXFWBn8ko+WFjNiRTfZcZ1XXLGrNnpAJpOU/gIzB9dgx0RJ+smWhw24CdnV2c+7DpMZ3yhOFMptZRhLr+YrgyOy0/NXY8DDA21JbLAeQ3g9ZNqTjUbcD7lZ+EtLSppWWkB9Km9pqxDaGJuWUNrUy7U9htPwR5G/8goxqCqNYck5a/rOgyTnNubeHWR/JOVUZN4SDRJ04xInqMDHehbRquXgXEp7D+O04YWOYtdTEHx/wx1rUa9U8T/LHfsQusi1BuMkSzbl/YARR4ZKNeL2HwF6wvqyOFFz7FB0pjPizikAKiTnbQ2oq8xCWTnuEOk5h/h3ZYyP5dNYqb2ZrKP56wLbMv9ISdS1RRt6TzfwbcM0j+LoZls3qeB9lvsWynUybFmbpJrI4AvJzMIdyRf34Bg3ztWJ3QzRk5UfeRLvoGfCugRhcr+nUmoqgYt0HySvkJhHUvLzUBwmYT9hVkh85CtvixN/CwcxoX0tgQhYKGoIxHs2Tcpi1go4OxG6ZbelYZ4mxka2wtNEK3svQAMp+h2/3yi+K6tvoFMSUVXJhkOxAg7GRdz2dRGCc0utdpL0J4wY89LFC9lf+2E/nfbYNRVvKLDE2UsQPFfMj58K7k3CdQgfJI0sVcrUy3ewl51XG5BSSYrQlqjKOte5jyo/J5Mn8luGXf8r5aMstUkp17VmGL2Nl+GWstfp/UsZqKutxBmWspnIjHQnsH1sQTBlTZVAZU6Rt9VKRjhNo6FWvOIGbjK1wtB6h9Ywvd1rCyqPokkqqTdkqUhuRty6rtKkOV750BpY/Jrn1MVd4FU75iP61llAwSSMxbyEPv8DcHYg/Tum3m5kvweTddFR6HXUtj2LMDjy9Tm7fwgivwuWlfqbF9V9UuLT83cqMDFCvwmVG16ojBd5HGKHVxiweMZrhPZjtBK/CaRtVhWutrtOaus6qrlnUmjVsxXUtJSg2sp7aY+NYX1N5GGw7zkCHTVi5PYu1THAxHZSwb2bVjkRGLwVGxHAUu42VO0mGrcYP5Uz3NZsXZTc/0g2F7qUjh1H3S8sJzP0Qf2hxLFH9WoxBS/H7k4xcHkaP5zFqBTq8Qsfj8sUmhtfy24Rh0TBHkU0g9R6iLPNYdmsJrILvG6a7y7YIK7JEXUsenXjamD4M3Q7L4XS+pvU7D4Pe9XSva9nH8H9glMlB2NFo1obEHM7cKVq/N6BzBxLtTtuSJn+xRF7qKgS2Uy5ry0qh4y00TNSITxhhkPF3BH8ul33PiHfx9PfEck2Y9SyCPJUxtB6h0w65vNESKK0lXohLG3DeYdmIfZqxM7Myo9VYEx2MnXcgcmR9LJo6Ys3UkGxCcJ8llIGs8Wy8Vg+xmU3qJXzSJubG4zByE9KGxRxcJfe9jtrzQdbRUaF4Pocmc7BpJe0sbRxLEDYT9F5GTlcIKhl+Ax1leG+aOq7kj4iVXFN5lWQMYGgBc3dHxvnKiRRiMZgRKfyOiHVsJ5X6MXKlav15moXs84wyS6hTKsr4639WnVnFcAaITAFzUHuNKcOKDuyZXgxZLlFLNOe+4Y0obfrQslRl7LEymOdzS4B8C2E4OCVRbBialn8oBa0DtT/dthz4TrKEMTmczwKSPgxBezFrGIWNJBaB8gZdT/6VEISDTmbTeJfJB6DvZwpQH0TvxxfdbMt8KZZoztVOt1Md+xG9GUfvx6fPaA/bDz9StW/SekRz7vMqNhuQtJU/nsOKT2XOI5ZRJVktIxTQ/fzGk00YzLGP2O1E9MkEtVnz9UHGekb0AXhC82kHYRoFg9aYF3jUiP1he21kNC5OgHgQLZ5mSgpNby20dZYobXqQCnSc/BshXfths9oTYx2n2hGZ0TM8FmOGMGK/bUm7zsgfggOPQWVGNOeeioWnEl+1yPCIfnaEnUUsmlYy1Jq5nAoyo4s9hUWoPnDAMiwmn4hDIjS6hQ1xQA6bzTAc5BM696DhMFz+LepejJxmLeLL6HiSynk101Yry2fSsRCTb7EtCt1hCQ5AaHi/Np/7icGDTPEgQhdnswEuAxl8BjmzBCL6XGv1fZg7sY6g3gHRUlfaVG5bhF1pibT83yIjMYsRRyFkbVa0JYX2cs3fgu/0pNPCL1mrx7PGrGS58ajFDBwLqESWyIz2x5B1WSylFkroNfCuQPcfvI3C307ouEVVTx3PMM0KzH1HZbgFHx5Aof7EgGOBhGrBaBa15HyjJagDtIwYG/mW6Q7g6BARQoY8LqFq7SwiNK1G+Hp8iw7XMNN2WNFUQj3VPVs8q+zmlh95xhJerW1QmdyOet9h2SekeX/l/F6IMfz2wsx8HrGcKTSiUetUe/o7mLmBTlaWhJJNyFlkW+yeZgntyXZEadMAn6UHADJU+yTUa5lFhKb1RqCHWKSYZFhNJVSqaxa1FP8fCJjKlR6KKOcvM/ANnQjWMav2yzom/Ugdq/mjFXVW0H6hI+MDEN/YmdVSyAosUdcSRoM96uiJGh+Q3Go3xjrq+Q2i82mF4XewPMIf0wlFjdbJCkJ4n9zxBsMWgH5IXt8o23SqG8VvH0O7ex3s6CTJLjoqlZPyjSGNGrGtdxbSlzF8cH1earltGTHIEmykrMbXs5hlPsNvYPf4A0mXqIfdNow4QtYdBrEd5CS0Y18x5mKkz2S6MtsS0mpLGLMak5/Kxtkv4ardCHoJxVLl/ZewYRDa1TFyqIxaBTGGTrmuUDcdo0Fv1HQd0bmC3rcReL/y4zbmXonA29DwNa9DZ/fW6vWMID9kRF5qiKw/gek4DI+N/BHf6cxxi22x/2lLNOe+zpSsi7zUTxB4AIO8cJtP/mXh9bZEn9BY3HKcJdDiFPTUIWUsItuoEM5BaW1nMolJ81KXWELnsswoHdQtpGl1PmW1YTt7CoXJIB1llUpKqbqWL7X/qzLtg09rbp+WTZklKFPI4FkzL/VceD/GilOYv1kj+oCs548+jKr9V7tL/r+yUcPiBIgH0bK5UCk51vXS/VU/hA7NIS3neQTdzA0UG2OWsnw8fUmwupYrLMHLMqSTYN7z9A1ETg85v6jOjGTxDWFtOfUuM7oaqx5mxNty8X/36K9SISIv9Q1UJ/KZ0V1oFaSifY3gr5RoAf7YgdAQJ4/1SrT3EMiNiRaJfspNW1XyUv+p7jTn3mwJpZMeiMj8QXRsJ+69GLVOKy8F5DG0S0FopddRUzmKn7xzrGRo1XyOYZegIU8+NZUz4P+17qDhI5bIS/0rcu7X6n0Ro1bhlE2w7tCet5VpE5jhPUb2VhKGckTAGyCbduL//aB3aSnuRkgKZU6H0UFa+ZLqFO9FCTozeE/wGPSfCxpLUPYYQYj/T13QBKoyZqMaixRGxLFsM6MfeYT2FwvFxphXOLjlpXaANVqH6rvQIcpJqIFk+EMWqi/kfBfkj4WkW7FsWUgCrGRBN6DTW7JWLD/QKRk/aKPoa4nm3DNwHSP0UCgWtVaGCCoqmZVLuzULE7LwwxAuFQbAOvgMZjkSIlrnCY3WeSra6Go+EVLAGM420qi1WrukNKNGi6ip/MGOyEsNKvF2YUQSOdaBOHDdJBVFSEU7QhqJRa2VIaIqYxdRysVx7ytlspjhbYQOoGOzZjnSKiShas2tODIz2ol85W4F834l7A4nojk3EyG9COhuOe5wiLGomMhRboUWbasWXD162xY177SEqqodoWOoWFqrf8RCK0OXCJkosJrOG7UqVhMN5qUMYIBP5EdmyXEqY+fZnwTRMR5tvsCb85DaqCx8CELbbINtqd7vW6I592taRpQ2JWDEFyRuCssYGTJYAtVqFjLN84C9HtOdEwY0ks6fkgv/u4slOkZb4t/ujk27RJzwN1XnVQFKeB4Q8X/0ekyXwnKwcgo3bGUY1uelBjw3iOBkoRvGrUzsEwRRNzdKgAZVhdeARpB9z+DvVVnszEtQsKVOeaWWEcMtUdp0DMrekIWiPxDN7vxeR7dH9fLoQdI5AYEP0vk73UOIQAMdc+IEgZDrdKHbBV/kMe9HYi7C/Qtx/+22xcq/WEL3bf4uvhYFttHxOgp01KKWOQMZ5Zlus15zMkPjr5PrHBknbKZo2xTBpCcjah8pn4taZFddyyjMTyD/rsW15J9uibyEXG5bFuGrltCpx+Zwa/UvEN+iQRtWJ1nOaZp0fRb+jpwYbvE6tDA0wq4UsWjp1LXsomUt6YytxcUGb1vcU2WJtPxpKMd6VCJqgcpfyJK/Toa4FRP7MT2LWx6NE3EPiDABHVxscomQKG5u6DhOm/5Q/PcFYv6Ec9dIt7loPpvtYYltUUVLURvqJlhIPz2QKR9VMf0E3Qcymj/UMosI5bTOGjbJ61o+ItLb+ENHJJaBXgVqXWgWtfh5riXqWq6C9TN1nIOm2/njZAAWm1QnzdDFs8Uc4PFBj202tiI0LdeUTVlxIg6J0AahewPyXwQHStUbPd6fQJx0kfcbnW6VI4OpSLm0YT3XFEGcRbzn2RbzF1miprIasWeq43E0HALLKlyZo/W2DEv7K1eW0DOAoD+AHRmqd/fCm0E23GpbvD3FEpnRMTjoeF0PDSPwfajiw3BfNx0VhuEHX2daY5Zit/Y9bc1I1AHg3/DMcKaOvKutxmTkv9oX7b2QrkAcwh9Ma8xF2sISvRKWlr+U8aDckngE3ZgDxB9oDeE5dWc2PQs8gpO8B8XkmExp1SemQx9PlNYJrUfEIRG2osQUotc3Q0UnTqiQUFBPtQSOGQK0TwuQHxWlpvIKsjyBkM8idakoeaneXqdXBmrJgTctUVO5B22pKJnRINp+i6dTvIpS2nSorShqbUURQRWwI2xFEYsqSmZ0D5GjonCwRQ/dPqy0LYl1pyWMmY0cKkpr9ThUXpelrQlZkjEE4lbS4FT0oJBwo/YrgQM8D9DylFpTmQHGWhdhqCh5qWfScZweAC5CL+2j17EK1uhh61Ysn03Hw7ZFlXWWqMrYAgsVRSVBFWVs5AtUOkFe/A5kNPxqmUWEKkpr9Rd0UlEyo7tJzW38trD4qCjag1VANIta/HyrJVTKbUXR/qmKIjttRZHqqihqNYvZFbApR+BGNuLBj1BoZKPWDbf/jRj2Z1bEsEbvTHZOI0szCvFtA8p8Ry6GGrWh8dzQiEH9wzWVPzdQQZhyWwMBG4n3n2rQm32i0GDzGKLu/y+P6bkHF1Y3WCu5i2lozp2Fld0asfKqMLffjdqAW6vPbkS5/oyQHZ5h9rSgBNfTCBEVQWiV+7QegWa/LgJL6HUCuvazBKs9B0IXMRPg5iImL3UulncgGVfYFt++aAnP4YxQbHXa12OnXifjzhCHs7eRE7KlE+nxCvA+Un1CT1H48/2wPoXJS30dZGeY4ETDCi4xsS3zVVhC+5h9E0Ck4N1JPpxKR5Nk6MSxlp8sXhE29xBtFTadX6iuQzH2BpW6s9BvBZXtZPHVk77H4+o7G3Ri4wTYwIiOKNKzUQ5lVCO888iQkxtJ7DvJkF6N7GqsxC+VGLXsm0vhXasgN6D35mzVTV3u6dWAfaK2CsQ0Mbv/867TevQ/7zqZ5ziM3IS0YTEHV8l9r6P2v+G7zoCeFchB1amVzGNvPD7yCJVlC8XGmG0sP4LOMeRBCd+OIz9mbCd+RFGX5a3VJ1AurmPWs8S3xBKkxN0Qp7MR6laUU5Yu6FurjyQDriIQh6gY/RHXGXgvQNMP5bFcRjRgmD7eYzoR2v+8a8MUzx90osMsWLfWE90FIJsaNC3X6Y0YcJ0lrGbcLDZIVVyo7Wx7dmZ0IF7yjLGWsTa9qUQILW0qiA0P03FJAztHtgTioyGWkGUk+W7mfIE1fkMDWn3BIu9dr3dcJFA2endDq90MP5rpTtEmNwDkeqZS+JhOhD608Z4eKYyUHabrRLJ/gHVH61C6jLQ7hVI7hBbPShERVjP5XKraIEh3RUWtpJvrtHN4RwAWgn8a0l2OQxyrDWMQ6vlEDXnLpqKPh+LEcm08gnyCeqOVpS9i4oQ/Ba0x73EMi92mYkChJQg+Jq7LIlYtVItrGPqf13r49B3M3EAn1+sSql1Rs6jF7mmW0FnIjtAB3mPpAYAMLXMJ9VpmEaFpvRHoIRYpJhlWUwmV6ppFrR5PypFqV/sqxrL+VXMtoYpnodgYY/4f(/figma)--&gt;&quot;&gt;&lt;/span&gt;&lt;span style=&quot;&quot;&gt;Agendamiento de Asesorías Académicas:Un sistema que permite a estudiantes programar sesiones de tutoría o asesoría académica con profesores o tutores.Los estudiantes pueden ver la disponibilidad de los instructores y elegir horarios convenientes, además podrán elegir el tipo de servicio (asesoría, clase grupal, taller, tutoría).El sistema podría incluir funciones de notificación y recordatorio de citas.&lt;br&gt;&lt;br&gt;acotar contexto?&lt;br&gt;profesores?&lt;br&gt;diferencia entre tutores y profesores&lt;br&gt;&lt;br&gt;&lt;/span&gt;" style="text;whiteSpace=wrap;html=1;sketch=1;curveFitting=1;jiggle=2;shadow=1;" parent="1" vertex="1">
          <mxGeometry x="115" y="35" width="560" height="150" as="geometry" />
        </mxCell>
        <mxCell id="AaMLPRYkscA9fuNhLtrj-38" style="edgeStyle=orthogonalEdgeStyle;rounded=0;orthogonalLoop=1;jettySize=auto;html=1;exitX=0.75;exitY=1;exitDx=0;exitDy=0;curved=1;sketch=1;curveFitting=1;jiggle=2;shadow=1;" parent="1" source="AaMLPRYkscA9fuNhLtrj-22" target="AaMLPRYkscA9fuNhLtrj-37" edge="1">
          <mxGeometry relative="1" as="geometry" />
        </mxCell>
        <mxCell id="f7JD7WUSecMkNCpaBmJr-20" style="edgeStyle=orthogonalEdgeStyle;rounded=0;orthogonalLoop=1;jettySize=auto;html=1;exitX=0.5;exitY=0;exitDx=0;exitDy=0;entryX=0.25;entryY=1;entryDx=0;entryDy=0;endArrow=none;endFill=0;curved=1;sketch=1;curveFitting=1;jiggle=2;startArrow=ERmany;startFill=0;shadow=1;" parent="1" source="AaMLPRYkscA9fuNhLtrj-22" target="AaMLPRYkscA9fuNhLtrj-69" edge="1">
          <mxGeometry relative="1" as="geometry">
            <Array as="points">
              <mxPoint x="1500" y="580" />
              <mxPoint x="1380" y="580" />
              <mxPoint x="1380" y="480" />
              <mxPoint x="1330" y="480" />
            </Array>
          </mxGeometry>
        </mxCell>
        <mxCell id="AaMLPRYkscA9fuNhLtrj-22" value="KNOWLEDGES" style="rounded=0;whiteSpace=wrap;html=1;sketch=1;curveFitting=1;jiggle=2;shadow=1;fillColor=#f8cecc;strokeColor=#b85450;" parent="1" vertex="1">
          <mxGeometry x="1440" y="605" width="120" height="60" as="geometry" />
        </mxCell>
        <mxCell id="AaMLPRYkscA9fuNhLtrj-39" style="edgeStyle=orthogonalEdgeStyle;rounded=0;orthogonalLoop=1;jettySize=auto;html=1;exitX=0;exitY=0.5;exitDx=0;exitDy=0;entryX=1;entryY=0.5;entryDx=0;entryDy=0;curved=1;endArrow=ERmany;endFill=0;sketch=1;curveFitting=1;jiggle=2;shadow=1;" parent="1" source="AaMLPRYkscA9fuNhLtrj-29" target="AaMLPRYkscA9fuNhLtrj-22" edge="1">
          <mxGeometry relative="1" as="geometry" />
        </mxCell>
        <mxCell id="AaMLPRYkscA9fuNhLtrj-43" style="edgeStyle=orthogonalEdgeStyle;rounded=0;orthogonalLoop=1;jettySize=auto;html=1;exitX=0.75;exitY=1;exitDx=0;exitDy=0;curved=1;sketch=1;curveFitting=1;jiggle=2;shadow=1;" parent="1" source="AaMLPRYkscA9fuNhLtrj-29" target="AaMLPRYkscA9fuNhLtrj-42" edge="1">
          <mxGeometry relative="1" as="geometry" />
        </mxCell>
        <mxCell id="AaMLPRYkscA9fuNhLtrj-45" style="edgeStyle=orthogonalEdgeStyle;rounded=0;orthogonalLoop=1;jettySize=auto;html=1;exitX=1;exitY=1;exitDx=0;exitDy=0;curved=1;sketch=1;curveFitting=1;jiggle=2;shadow=1;" parent="1" source="AaMLPRYkscA9fuNhLtrj-29" target="AaMLPRYkscA9fuNhLtrj-44" edge="1">
          <mxGeometry relative="1" as="geometry" />
        </mxCell>
        <mxCell id="AaMLPRYkscA9fuNhLtrj-93" style="edgeStyle=orthogonalEdgeStyle;rounded=0;orthogonalLoop=1;jettySize=auto;html=1;exitX=0.5;exitY=0;exitDx=0;exitDy=0;entryX=1;entryY=0.5;entryDx=0;entryDy=0;endArrow=ERmany;endFill=0;curved=1;sketch=1;curveFitting=1;jiggle=2;shadow=1;" parent="1" source="AaMLPRYkscA9fuNhLtrj-29" target="AaMLPRYkscA9fuNhLtrj-90" edge="1">
          <mxGeometry relative="1" as="geometry" />
        </mxCell>
        <mxCell id="AaMLPRYkscA9fuNhLtrj-29" value="TOPICS" style="rounded=0;whiteSpace=wrap;html=1;sketch=1;curveFitting=1;jiggle=2;shadow=1;fillColor=#f8cecc;strokeColor=#b85450;" parent="1" vertex="1">
          <mxGeometry x="915" y="930" width="120" height="60" as="geometry" />
        </mxCell>
        <mxCell id="AaMLPRYkscA9fuNhLtrj-33" value="NAME" style="ellipse;whiteSpace=wrap;html=1;sketch=1;curveFitting=1;jiggle=2;shadow=1;" parent="1" vertex="1">
          <mxGeometry x="795" y="1010" width="120" height="80" as="geometry" />
        </mxCell>
        <mxCell id="AaMLPRYkscA9fuNhLtrj-34" style="edgeStyle=orthogonalEdgeStyle;rounded=0;orthogonalLoop=1;jettySize=auto;html=1;exitX=0.5;exitY=1;exitDx=0;exitDy=0;entryX=0.6;entryY=0.038;entryDx=0;entryDy=0;entryPerimeter=0;curved=1;sketch=1;curveFitting=1;jiggle=2;shadow=1;" parent="1" source="AaMLPRYkscA9fuNhLtrj-29" target="AaMLPRYkscA9fuNhLtrj-33" edge="1">
          <mxGeometry relative="1" as="geometry" />
        </mxCell>
        <mxCell id="AaMLPRYkscA9fuNhLtrj-37" value="ACTIVE?" style="ellipse;whiteSpace=wrap;html=1;sketch=1;curveFitting=1;jiggle=2;shadow=1;" parent="1" vertex="1">
          <mxGeometry x="1330" y="695" width="120" height="80" as="geometry" />
        </mxCell>
        <mxCell id="AaMLPRYkscA9fuNhLtrj-42" value="DESCRIPTION" style="ellipse;whiteSpace=wrap;html=1;sketch=1;curveFitting=1;jiggle=2;shadow=1;" parent="1" vertex="1">
          <mxGeometry x="895" y="1070" width="120" height="80" as="geometry" />
        </mxCell>
        <mxCell id="AaMLPRYkscA9fuNhLtrj-44" value="CREATED_ON" style="ellipse;whiteSpace=wrap;html=1;sketch=1;curveFitting=1;jiggle=2;shadow=1;" parent="1" vertex="1">
          <mxGeometry x="995" y="1030" width="120" height="80" as="geometry" />
        </mxCell>
        <mxCell id="AaMLPRYkscA9fuNhLtrj-46" value="&lt;h1&gt;Knowledges&lt;/h1&gt;&lt;div&gt;Refers to a group of topics that&lt;/div&gt;&lt;div&gt;the specific teacher known.&lt;/div&gt;" style="text;html=1;strokeColor=#6c8ebf;fillColor=#dae8fc;spacing=5;spacingTop=-20;whiteSpace=wrap;overflow=hidden;rounded=0;sketch=1;curveFitting=1;jiggle=2;shadow=1;" parent="1" vertex="1">
          <mxGeometry x="1405" y="840" width="190" height="120" as="geometry" />
        </mxCell>
        <mxCell id="AaMLPRYkscA9fuNhLtrj-54" value="SESSION" style="rounded=0;whiteSpace=wrap;html=1;sketch=1;curveFitting=1;jiggle=2;shadow=1;fillColor=#f8cecc;strokeColor=#b85450;" parent="1" vertex="1">
          <mxGeometry x="220" y="615" width="120" height="60" as="geometry" />
        </mxCell>
        <mxCell id="AaMLPRYkscA9fuNhLtrj-89" style="edgeStyle=orthogonalEdgeStyle;rounded=0;orthogonalLoop=1;jettySize=auto;html=1;exitX=1;exitY=0.5;exitDx=0;exitDy=0;curved=1;sketch=1;curveFitting=1;jiggle=2;shadow=1;" parent="1" source="AaMLPRYkscA9fuNhLtrj-55" target="AaMLPRYkscA9fuNhLtrj-54" edge="1">
          <mxGeometry relative="1" as="geometry" />
        </mxCell>
        <mxCell id="AaMLPRYkscA9fuNhLtrj-55" value="START_DATE" style="ellipse;whiteSpace=wrap;html=1;sketch=1;curveFitting=1;jiggle=2;shadow=1;" parent="1" vertex="1">
          <mxGeometry x="40" y="595" width="120" height="80" as="geometry" />
        </mxCell>
        <mxCell id="AaMLPRYkscA9fuNhLtrj-58" style="edgeStyle=orthogonalEdgeStyle;rounded=0;orthogonalLoop=1;jettySize=auto;html=1;exitX=1;exitY=1;exitDx=0;exitDy=0;entryX=0;entryY=0;entryDx=0;entryDy=0;curved=1;sketch=1;curveFitting=1;jiggle=2;shadow=1;" parent="1" source="AaMLPRYkscA9fuNhLtrj-57" target="AaMLPRYkscA9fuNhLtrj-54" edge="1">
          <mxGeometry relative="1" as="geometry" />
        </mxCell>
        <mxCell id="AaMLPRYkscA9fuNhLtrj-57" value="END_DATE" style="ellipse;whiteSpace=wrap;html=1;sketch=1;curveFitting=1;jiggle=2;shadow=1;" parent="1" vertex="1">
          <mxGeometry x="80" y="505" width="120" height="80" as="geometry" />
        </mxCell>
        <mxCell id="AaMLPRYkscA9fuNhLtrj-60" style="edgeStyle=orthogonalEdgeStyle;rounded=0;orthogonalLoop=1;jettySize=auto;html=1;exitX=0.5;exitY=1;exitDx=0;exitDy=0;entryX=0.5;entryY=0;entryDx=0;entryDy=0;endArrow=ERmany;endFill=0;curved=1;sketch=1;curveFitting=1;jiggle=2;shadow=1;" parent="1" source="AaMLPRYkscA9fuNhLtrj-59" target="AaMLPRYkscA9fuNhLtrj-54" edge="1">
          <mxGeometry relative="1" as="geometry" />
        </mxCell>
        <mxCell id="AaMLPRYkscA9fuNhLtrj-64" style="edgeStyle=orthogonalEdgeStyle;rounded=0;orthogonalLoop=1;jettySize=auto;html=1;exitX=0.5;exitY=0;exitDx=0;exitDy=0;curved=1;sketch=1;curveFitting=1;jiggle=2;shadow=1;" parent="1" source="AaMLPRYkscA9fuNhLtrj-59" target="AaMLPRYkscA9fuNhLtrj-63" edge="1">
          <mxGeometry relative="1" as="geometry" />
        </mxCell>
        <mxCell id="AaMLPRYkscA9fuNhLtrj-59" value="SESSION_TYPE" style="rounded=0;whiteSpace=wrap;html=1;sketch=1;curveFitting=1;jiggle=2;shadow=1;fillColor=#f8cecc;strokeColor=#b85450;" parent="1" vertex="1">
          <mxGeometry x="200" y="440" width="120" height="60" as="geometry" />
        </mxCell>
        <mxCell id="AaMLPRYkscA9fuNhLtrj-62" value="ACTIVE?" style="ellipse;whiteSpace=wrap;html=1;sketch=1;curveFitting=1;jiggle=2;shadow=1;" parent="1" vertex="1">
          <mxGeometry x="80" y="340" width="120" height="80" as="geometry" />
        </mxCell>
        <mxCell id="AaMLPRYkscA9fuNhLtrj-63" value="NAME" style="ellipse;whiteSpace=wrap;html=1;sketch=1;curveFitting=1;jiggle=2;shadow=1;" parent="1" vertex="1">
          <mxGeometry x="280" y="330" width="120" height="80" as="geometry" />
        </mxCell>
        <mxCell id="AaMLPRYkscA9fuNhLtrj-65" style="edgeStyle=orthogonalEdgeStyle;rounded=0;orthogonalLoop=1;jettySize=auto;html=1;exitX=0.25;exitY=0;exitDx=0;exitDy=0;entryX=0.561;entryY=0.994;entryDx=0;entryDy=0;entryPerimeter=0;curved=1;sketch=1;curveFitting=1;jiggle=2;shadow=1;" parent="1" source="AaMLPRYkscA9fuNhLtrj-59" target="AaMLPRYkscA9fuNhLtrj-62" edge="1">
          <mxGeometry relative="1" as="geometry" />
        </mxCell>
        <mxCell id="AaMLPRYkscA9fuNhLtrj-66" style="edgeStyle=orthogonalEdgeStyle;rounded=0;orthogonalLoop=1;jettySize=auto;html=1;exitX=0.339;exitY=-0.021;exitDx=0;exitDy=0;entryX=0.934;entryY=1.024;entryDx=0;entryDy=0;entryPerimeter=0;curved=1;endArrow=ERmany;endFill=0;sketch=1;curveFitting=1;jiggle=2;shadow=1;exitPerimeter=0;" parent="1" source="AaMLPRYkscA9fuNhLtrj-29" target="AaMLPRYkscA9fuNhLtrj-54" edge="1">
          <mxGeometry relative="1" as="geometry">
            <Array as="points">
              <mxPoint x="956" y="860" />
              <mxPoint x="880" y="860" />
              <mxPoint x="880" y="760" />
              <mxPoint x="332" y="760" />
            </Array>
          </mxGeometry>
        </mxCell>
        <mxCell id="AaMLPRYkscA9fuNhLtrj-68" value="&lt;h1&gt;Topic-session&lt;/h1&gt;&lt;div&gt;filter the teachers&lt;/div&gt;&lt;div&gt;with the selected topic&lt;/div&gt;" style="text;html=1;strokeColor=#6c8ebf;fillColor=#dae8fc;spacing=5;spacingTop=-20;whiteSpace=wrap;overflow=hidden;rounded=0;sketch=1;curveFitting=1;jiggle=2;shadow=1;" parent="1" vertex="1">
          <mxGeometry x="470" y="720" width="190" height="120" as="geometry" />
        </mxCell>
        <mxCell id="AaMLPRYkscA9fuNhLtrj-70" style="edgeStyle=orthogonalEdgeStyle;rounded=0;orthogonalLoop=1;jettySize=auto;html=1;exitX=0;exitY=0.5;exitDx=0;exitDy=0;curved=1;endArrow=ERoneToMany;endFill=0;sketch=1;curveFitting=1;jiggle=2;shadow=1;entryX=0.75;entryY=0;entryDx=0;entryDy=0;" parent="1" source="AaMLPRYkscA9fuNhLtrj-69" target="AaMLPRYkscA9fuNhLtrj-54" edge="1">
          <mxGeometry relative="1" as="geometry">
            <Array as="points">
              <mxPoint x="1300" y="430" />
              <mxPoint x="310" y="430" />
            </Array>
          </mxGeometry>
        </mxCell>
        <mxCell id="AaMLPRYkscA9fuNhLtrj-101" style="edgeStyle=orthogonalEdgeStyle;rounded=0;orthogonalLoop=1;jettySize=auto;html=1;exitX=0;exitY=0.5;exitDx=0;exitDy=0;curved=1;endArrow=ERmany;endFill=0;sketch=1;curveFitting=1;jiggle=2;shadow=1;" parent="1" source="AaMLPRYkscA9fuNhLtrj-69" target="AaMLPRYkscA9fuNhLtrj-99" edge="1">
          <mxGeometry relative="1" as="geometry" />
        </mxCell>
        <mxCell id="f7JD7WUSecMkNCpaBmJr-12" style="edgeStyle=orthogonalEdgeStyle;rounded=0;orthogonalLoop=1;jettySize=auto;html=1;exitX=0;exitY=0.75;exitDx=0;exitDy=0;curved=1;sketch=1;curveFitting=1;jiggle=2;entryX=0.75;entryY=0;entryDx=0;entryDy=0;endArrow=ERmany;endFill=0;shadow=1;" parent="1" source="AaMLPRYkscA9fuNhLtrj-69" target="AaMLPRYkscA9fuNhLtrj-90" edge="1">
          <mxGeometry relative="1" as="geometry" />
        </mxCell>
        <mxCell id="f7JD7WUSecMkNCpaBmJr-13" style="edgeStyle=orthogonalEdgeStyle;rounded=0;orthogonalLoop=1;jettySize=auto;html=1;exitX=0;exitY=1;exitDx=0;exitDy=0;entryX=1;entryY=0.5;entryDx=0;entryDy=0;curved=1;endArrow=ERmany;endFill=0;sketch=1;curveFitting=1;jiggle=2;shadow=1;" parent="1" source="AaMLPRYkscA9fuNhLtrj-69" target="AaMLPRYkscA9fuNhLtrj-54" edge="1">
          <mxGeometry relative="1" as="geometry" />
        </mxCell>
        <mxCell id="AaMLPRYkscA9fuNhLtrj-69" value="USER" style="rounded=0;whiteSpace=wrap;html=1;sketch=1;curveFitting=1;jiggle=2;shadow=1;fillColor=#f8cecc;strokeColor=#b85450;" parent="1" vertex="1">
          <mxGeometry x="1300" y="350" width="120" height="60" as="geometry" />
        </mxCell>
        <mxCell id="AaMLPRYkscA9fuNhLtrj-75" style="edgeStyle=orthogonalEdgeStyle;rounded=0;orthogonalLoop=1;jettySize=auto;html=1;exitX=0.5;exitY=1;exitDx=0;exitDy=0;entryX=0.25;entryY=0;entryDx=0;entryDy=0;curved=1;sketch=1;curveFitting=1;jiggle=2;shadow=1;" parent="1" source="AaMLPRYkscA9fuNhLtrj-71" target="AaMLPRYkscA9fuNhLtrj-69" edge="1">
          <mxGeometry relative="1" as="geometry" />
        </mxCell>
        <mxCell id="AaMLPRYkscA9fuNhLtrj-71" value="UPDATED_AT" style="ellipse;whiteSpace=wrap;html=1;sketch=1;curveFitting=1;jiggle=2;shadow=1;" parent="1" vertex="1">
          <mxGeometry x="1210" y="150" width="120" height="80" as="geometry" />
        </mxCell>
        <mxCell id="AaMLPRYkscA9fuNhLtrj-76" style="edgeStyle=orthogonalEdgeStyle;rounded=0;orthogonalLoop=1;jettySize=auto;html=1;exitX=0.5;exitY=1;exitDx=0;exitDy=0;entryX=0.5;entryY=0;entryDx=0;entryDy=0;curved=1;sketch=1;curveFitting=1;jiggle=2;shadow=1;" parent="1" source="AaMLPRYkscA9fuNhLtrj-72" target="AaMLPRYkscA9fuNhLtrj-69" edge="1">
          <mxGeometry relative="1" as="geometry" />
        </mxCell>
        <mxCell id="AaMLPRYkscA9fuNhLtrj-72" value="CREATED_AT" style="ellipse;whiteSpace=wrap;html=1;sketch=1;curveFitting=1;jiggle=2;shadow=1;" parent="1" vertex="1">
          <mxGeometry x="1310" y="150" width="120" height="80" as="geometry" />
        </mxCell>
        <mxCell id="AaMLPRYkscA9fuNhLtrj-74" style="edgeStyle=orthogonalEdgeStyle;rounded=0;orthogonalLoop=1;jettySize=auto;html=1;exitX=0.5;exitY=0;exitDx=0;exitDy=0;curved=1;sketch=1;curveFitting=1;jiggle=2;shadow=1;" parent="1" source="AaMLPRYkscA9fuNhLtrj-73" target="AaMLPRYkscA9fuNhLtrj-69" edge="1">
          <mxGeometry relative="1" as="geometry" />
        </mxCell>
        <mxCell id="AaMLPRYkscA9fuNhLtrj-73" value="ACTIVE?" style="ellipse;whiteSpace=wrap;html=1;sketch=1;curveFitting=1;jiggle=2;shadow=1;" parent="1" vertex="1">
          <mxGeometry x="1390" y="470" width="120" height="80" as="geometry" />
        </mxCell>
        <mxCell id="AaMLPRYkscA9fuNhLtrj-80" style="edgeStyle=orthogonalEdgeStyle;rounded=0;orthogonalLoop=1;jettySize=auto;html=1;exitX=0;exitY=0.5;exitDx=0;exitDy=0;entryX=0.75;entryY=0;entryDx=0;entryDy=0;curved=1;sketch=1;curveFitting=1;jiggle=2;shadow=1;" parent="1" source="AaMLPRYkscA9fuNhLtrj-77" target="AaMLPRYkscA9fuNhLtrj-69" edge="1">
          <mxGeometry relative="1" as="geometry" />
        </mxCell>
        <mxCell id="AaMLPRYkscA9fuNhLtrj-77" value="NAME" style="ellipse;whiteSpace=wrap;html=1;sketch=1;curveFitting=1;jiggle=2;shadow=1;" parent="1" vertex="1">
          <mxGeometry x="1410" y="185" width="120" height="80" as="geometry" />
        </mxCell>
        <mxCell id="AaMLPRYkscA9fuNhLtrj-81" style="edgeStyle=orthogonalEdgeStyle;rounded=0;orthogonalLoop=1;jettySize=auto;html=1;exitX=0;exitY=0.5;exitDx=0;exitDy=0;entryX=1;entryY=0;entryDx=0;entryDy=0;curved=1;sketch=1;curveFitting=1;jiggle=2;shadow=1;" parent="1" source="AaMLPRYkscA9fuNhLtrj-78" target="AaMLPRYkscA9fuNhLtrj-69" edge="1">
          <mxGeometry relative="1" as="geometry" />
        </mxCell>
        <mxCell id="AaMLPRYkscA9fuNhLtrj-78" value="MIIDDLE_NAME" style="ellipse;whiteSpace=wrap;html=1;sketch=1;curveFitting=1;jiggle=2;shadow=1;" parent="1" vertex="1">
          <mxGeometry x="1480" y="230" width="120" height="80" as="geometry" />
        </mxCell>
        <mxCell id="AaMLPRYkscA9fuNhLtrj-82" style="edgeStyle=orthogonalEdgeStyle;rounded=0;orthogonalLoop=1;jettySize=auto;html=1;exitX=0;exitY=0.5;exitDx=0;exitDy=0;entryX=1;entryY=0.5;entryDx=0;entryDy=0;curved=1;sketch=1;curveFitting=1;jiggle=2;shadow=1;" parent="1" source="AaMLPRYkscA9fuNhLtrj-79" target="AaMLPRYkscA9fuNhLtrj-69" edge="1">
          <mxGeometry relative="1" as="geometry" />
        </mxCell>
        <mxCell id="AaMLPRYkscA9fuNhLtrj-79" value="LAST_NAME" style="ellipse;whiteSpace=wrap;html=1;sketch=1;curveFitting=1;jiggle=2;shadow=1;" parent="1" vertex="1">
          <mxGeometry x="1510" y="290" width="120" height="80" as="geometry" />
        </mxCell>
        <mxCell id="AaMLPRYkscA9fuNhLtrj-84" style="edgeStyle=orthogonalEdgeStyle;rounded=0;orthogonalLoop=1;jettySize=auto;html=1;exitX=0;exitY=0.5;exitDx=0;exitDy=0;entryX=1;entryY=1;entryDx=0;entryDy=0;curved=1;sketch=1;curveFitting=1;jiggle=2;shadow=1;" parent="1" source="AaMLPRYkscA9fuNhLtrj-83" target="AaMLPRYkscA9fuNhLtrj-69" edge="1">
          <mxGeometry relative="1" as="geometry" />
        </mxCell>
        <mxCell id="AaMLPRYkscA9fuNhLtrj-83" value="PHONE" style="ellipse;whiteSpace=wrap;html=1;sketch=1;curveFitting=1;jiggle=2;shadow=1;" parent="1" vertex="1">
          <mxGeometry x="1530" y="330" width="120" height="80" as="geometry" />
        </mxCell>
        <mxCell id="AaMLPRYkscA9fuNhLtrj-87" value="MAIL" style="ellipse;whiteSpace=wrap;html=1;sketch=1;curveFitting=1;jiggle=2;shadow=1;" parent="1" vertex="1">
          <mxGeometry x="1510" y="425" width="120" height="80" as="geometry" />
        </mxCell>
        <mxCell id="AaMLPRYkscA9fuNhLtrj-88" style="edgeStyle=orthogonalEdgeStyle;rounded=0;orthogonalLoop=1;jettySize=auto;html=1;exitX=0.5;exitY=0;exitDx=0;exitDy=0;entryX=0.624;entryY=1.04;entryDx=0;entryDy=0;entryPerimeter=0;curved=1;sketch=1;curveFitting=1;jiggle=2;shadow=1;" parent="1" source="AaMLPRYkscA9fuNhLtrj-87" target="AaMLPRYkscA9fuNhLtrj-69" edge="1">
          <mxGeometry relative="1" as="geometry" />
        </mxCell>
        <mxCell id="AaMLPRYkscA9fuNhLtrj-100" style="edgeStyle=orthogonalEdgeStyle;rounded=0;orthogonalLoop=1;jettySize=auto;html=1;exitX=0.5;exitY=0;exitDx=0;exitDy=0;entryX=0.5;entryY=1;entryDx=0;entryDy=0;curved=1;endArrow=ERmany;endFill=0;sketch=1;curveFitting=1;jiggle=2;shadow=1;" parent="1" source="AaMLPRYkscA9fuNhLtrj-90" target="AaMLPRYkscA9fuNhLtrj-99" edge="1">
          <mxGeometry relative="1" as="geometry" />
        </mxCell>
        <mxCell id="AaMLPRYkscA9fuNhLtrj-105" style="edgeStyle=orthogonalEdgeStyle;rounded=0;orthogonalLoop=1;jettySize=auto;html=1;exitX=1;exitY=0.25;exitDx=0;exitDy=0;entryX=0.5;entryY=0;entryDx=0;entryDy=0;endArrow=ERmany;endFill=0;curved=1;sketch=1;curveFitting=1;jiggle=2;shadow=1;" parent="1" source="AaMLPRYkscA9fuNhLtrj-90" target="AaMLPRYkscA9fuNhLtrj-103" edge="1">
          <mxGeometry relative="1" as="geometry" />
        </mxCell>
        <mxCell id="AaMLPRYkscA9fuNhLtrj-90" value="GROUP" style="rounded=0;whiteSpace=wrap;html=1;sketch=1;curveFitting=1;jiggle=2;shadow=1;fillColor=#f8cecc;strokeColor=#b85450;" parent="1" vertex="1">
          <mxGeometry x="770" y="650" width="120" height="60" as="geometry" />
        </mxCell>
        <mxCell id="AaMLPRYkscA9fuNhLtrj-102" style="edgeStyle=orthogonalEdgeStyle;rounded=0;orthogonalLoop=1;jettySize=auto;html=1;exitX=1;exitY=0.5;exitDx=0;exitDy=0;entryX=0;entryY=0.5;entryDx=0;entryDy=0;fillColor=#1ba1e2;strokeColor=#006EAF;sketch=1;curveFitting=1;jiggle=2;shadow=1;curved=1;" parent="1" source="AaMLPRYkscA9fuNhLtrj-97" target="AaMLPRYkscA9fuNhLtrj-99" edge="1">
          <mxGeometry relative="1" as="geometry">
            <mxPoint x="690" y="520" as="targetPoint" />
          </mxGeometry>
        </mxCell>
        <mxCell id="AaMLPRYkscA9fuNhLtrj-97" value="&lt;h1&gt;Group&lt;/h1&gt;&lt;div&gt;if session_type is group, user&lt;/div&gt;&lt;div&gt;will be able to select for an available groups depending on selected teacher&lt;/div&gt;" style="text;html=1;strokeColor=#6c8ebf;fillColor=#dae8fc;spacing=5;spacingTop=-20;whiteSpace=wrap;overflow=hidden;rounded=0;sketch=1;curveFitting=1;jiggle=2;shadow=1;" parent="1" vertex="1">
          <mxGeometry x="414" y="495" width="190" height="120" as="geometry" />
        </mxCell>
        <mxCell id="AaMLPRYkscA9fuNhLtrj-99" value="STUDENT_GROUP" style="rounded=0;whiteSpace=wrap;html=1;sketch=1;curveFitting=1;jiggle=2;shadow=1;fillColor=#f8cecc;strokeColor=#b85450;" parent="1" vertex="1">
          <mxGeometry x="675" y="480" width="120" height="60" as="geometry" />
        </mxCell>
        <mxCell id="AaMLPRYkscA9fuNhLtrj-108" style="edgeStyle=orthogonalEdgeStyle;rounded=0;orthogonalLoop=1;jettySize=auto;html=1;exitX=0.5;exitY=1;exitDx=0;exitDy=0;curved=1;sketch=1;curveFitting=1;jiggle=2;shadow=1;" parent="1" source="AaMLPRYkscA9fuNhLtrj-103" target="AaMLPRYkscA9fuNhLtrj-106" edge="1">
          <mxGeometry relative="1" as="geometry" />
        </mxCell>
        <mxCell id="AaMLPRYkscA9fuNhLtrj-103" value="SCHEDULE" style="rounded=0;whiteSpace=wrap;html=1;sketch=1;curveFitting=1;jiggle=2;fillColor=#f8cecc;strokeColor=#b85450;shadow=1;" parent="1" vertex="1">
          <mxGeometry x="1040" y="630" width="120" height="60" as="geometry" />
        </mxCell>
        <mxCell id="AaMLPRYkscA9fuNhLtrj-106" value="ENTRY-TIME" style="ellipse;whiteSpace=wrap;html=1;sketch=1;curveFitting=1;jiggle=2;shadow=1;" parent="1" vertex="1">
          <mxGeometry x="1140" y="710" width="120" height="80" as="geometry" />
        </mxCell>
        <mxCell id="AaMLPRYkscA9fuNhLtrj-107" value="DEPARTURE" style="ellipse;whiteSpace=wrap;html=1;sketch=1;curveFitting=1;jiggle=2;shadow=1;" parent="1" vertex="1">
          <mxGeometry x="1230" y="615" width="120" height="80" as="geometry" />
        </mxCell>
        <mxCell id="AaMLPRYkscA9fuNhLtrj-109" style="edgeStyle=orthogonalEdgeStyle;rounded=0;orthogonalLoop=1;jettySize=auto;html=1;exitX=1;exitY=0.5;exitDx=0;exitDy=0;entryX=0.417;entryY=-0.025;entryDx=0;entryDy=0;entryPerimeter=0;curved=1;sketch=1;curveFitting=1;jiggle=2;shadow=1;" parent="1" source="AaMLPRYkscA9fuNhLtrj-103" target="AaMLPRYkscA9fuNhLtrj-107" edge="1">
          <mxGeometry relative="1" as="geometry" />
        </mxCell>
        <mxCell id="AaMLPRYkscA9fuNhLtrj-110" value="DATE" style="ellipse;whiteSpace=wrap;html=1;sketch=1;curveFitting=1;jiggle=2;shadow=1;" parent="1" vertex="1">
          <mxGeometry x="970" y="730" width="120" height="80" as="geometry" />
        </mxCell>
        <mxCell id="AaMLPRYkscA9fuNhLtrj-111" style="edgeStyle=orthogonalEdgeStyle;rounded=0;orthogonalLoop=1;jettySize=auto;html=1;exitX=0.25;exitY=1;exitDx=0;exitDy=0;entryX=0.35;entryY=0.038;entryDx=0;entryDy=0;entryPerimeter=0;curved=1;sketch=1;curveFitting=1;jiggle=2;shadow=1;" parent="1" source="AaMLPRYkscA9fuNhLtrj-103" target="AaMLPRYkscA9fuNhLtrj-110" edge="1">
          <mxGeometry relative="1" as="geometry" />
        </mxCell>
        <mxCell id="AaMLPRYkscA9fuNhLtrj-112" value="&lt;h1&gt;&lt;font color=&quot;#3333ff&quot;&gt;Group and Session Orchester&lt;/font&gt;&lt;/h1&gt;&lt;p&gt;&lt;font color=&quot;#3333ff&quot;&gt;&amp;nbsp;before creation of sessions, our system need to check the availability of&amp;nbsp; selected schedule&lt;/font&gt;&lt;/p&gt;&lt;p&gt;&lt;font color=&quot;#3333ff&quot;&gt;verifying in groups_schedules and in sessions of selected teacher.&lt;/font&gt;&lt;/p&gt;&lt;p&gt;&lt;font color=&quot;#3333ff&quot;&gt;The same thing applies for group creation.&lt;/font&gt;&lt;/p&gt;" style="text;html=1;strokeColor=#6c8ebf;fillColor=#dae8fc;spacing=5;spacingTop=-20;whiteSpace=wrap;overflow=hidden;rounded=0;sketch=1;curveFitting=1;jiggle=2;shadow=1;" parent="1" vertex="1">
          <mxGeometry x="1180" y="840" width="190" height="280" as="geometry" />
        </mxCell>
        <mxCell id="J1Y3Qm39NpM6d_sTlmnD-1" style="edgeStyle=orthogonalEdgeStyle;rounded=0;orthogonalLoop=1;jettySize=auto;html=1;exitX=0;exitY=0.5;exitDx=0;exitDy=0;entryX=1.007;entryY=0.615;entryDx=0;entryDy=0;entryPerimeter=0;curved=1;fillColor=#1ba1e2;strokeColor=#006EAF;shadow=1;sketch=1;curveFitting=1;jiggle=2;" parent="1" source="AaMLPRYkscA9fuNhLtrj-97" target="AaMLPRYkscA9fuNhLtrj-59" edge="1">
          <mxGeometry relative="1" as="geometry" />
        </mxCell>
        <mxCell id="f7JD7WUSecMkNCpaBmJr-3" style="edgeStyle=orthogonalEdgeStyle;rounded=0;orthogonalLoop=1;jettySize=auto;html=1;exitX=1;exitY=0.5;exitDx=0;exitDy=0;entryX=0;entryY=0.25;entryDx=0;entryDy=0;endArrow=ERmany;endFill=0;curved=1;sketch=1;curveFitting=1;jiggle=2;shadow=1;" parent="1" source="f7JD7WUSecMkNCpaBmJr-2" target="AaMLPRYkscA9fuNhLtrj-69" edge="1">
          <mxGeometry relative="1" as="geometry" />
        </mxCell>
        <mxCell id="f7JD7WUSecMkNCpaBmJr-2" value="USER_TYPE" style="rounded=0;whiteSpace=wrap;html=1;sketch=1;curveFitting=1;jiggle=2;shadow=1;fillColor=#f8cecc;strokeColor=#b85450;" parent="1" vertex="1">
          <mxGeometry x="840" y="300" width="120" height="60" as="geometry" />
        </mxCell>
        <mxCell id="f7JD7WUSecMkNCpaBmJr-4" style="edgeStyle=orthogonalEdgeStyle;rounded=0;orthogonalLoop=1;jettySize=auto;html=1;exitX=0.5;exitY=1;exitDx=0;exitDy=0;shadow=1;sketch=1;curveFitting=1;jiggle=2;" parent="1" edge="1">
          <mxGeometry relative="1" as="geometry">
            <mxPoint x="1529.9999999999995" y="510" as="sourcePoint" />
            <mxPoint x="1529.9999999999995" y="510" as="targetPoint" />
          </mxGeometry>
        </mxCell>
        <mxCell id="YMt_CVixLTHwNkyfTnBB-5" style="edgeStyle=orthogonalEdgeStyle;rounded=0;orthogonalLoop=1;jettySize=auto;html=1;exitX=0.5;exitY=1;exitDx=0;exitDy=0;sketch=1;curveFitting=1;jiggle=2;curved=1;shadow=1;" edge="1" parent="1" source="f7JD7WUSecMkNCpaBmJr-14" target="YMt_CVixLTHwNkyfTnBB-1">
          <mxGeometry relative="1" as="geometry" />
        </mxCell>
        <mxCell id="f7JD7WUSecMkNCpaBmJr-14" value="ENTRY" style="ellipse;whiteSpace=wrap;html=1;sketch=1;curveFitting=1;jiggle=2;shadow=1;" parent="1" vertex="1">
          <mxGeometry x="1060" width="120" height="80" as="geometry" />
        </mxCell>
        <mxCell id="YMt_CVixLTHwNkyfTnBB-6" style="edgeStyle=orthogonalEdgeStyle;rounded=0;orthogonalLoop=1;jettySize=auto;html=1;exitX=0.5;exitY=1;exitDx=0;exitDy=0;entryX=0.25;entryY=0;entryDx=0;entryDy=0;sketch=1;curveFitting=1;jiggle=2;curved=1;shadow=1;" edge="1" parent="1" source="f7JD7WUSecMkNCpaBmJr-15" target="YMt_CVixLTHwNkyfTnBB-1">
          <mxGeometry relative="1" as="geometry" />
        </mxCell>
        <mxCell id="f7JD7WUSecMkNCpaBmJr-15" value="DEPARTURE" style="ellipse;whiteSpace=wrap;html=1;sketch=1;curveFitting=1;jiggle=2;shadow=1;" parent="1" vertex="1">
          <mxGeometry x="920" width="120" height="80" as="geometry" />
        </mxCell>
        <mxCell id="YMt_CVixLTHwNkyfTnBB-1" value="TEACHER" style="rounded=0;whiteSpace=wrap;html=1;sketch=1;curveFitting=1;jiggle=2;fillColor=#f8cecc;strokeColor=#b85450;shadow=1;" vertex="1" parent="1">
          <mxGeometry x="1020" y="180" width="120" height="60" as="geometry" />
        </mxCell>
        <mxCell id="YMt_CVixLTHwNkyfTnBB-2" style="edgeStyle=orthogonalEdgeStyle;rounded=0;orthogonalLoop=1;jettySize=auto;html=1;exitX=0;exitY=0;exitDx=0;exitDy=0;entryX=0.858;entryY=1.033;entryDx=0;entryDy=0;entryPerimeter=0;endArrow=none;endFill=0;curved=1;sketch=1;curveFitting=1;jiggle=2;shadow=1;" edge="1" parent="1" source="AaMLPRYkscA9fuNhLtrj-69" target="YMt_CVixLTHwNkyfTnBB-1">
          <mxGeometry relative="1" as="geometry" />
        </mxCell>
        <mxCell id="YMt_CVixLTHwNkyfTnBB-9" style="edgeStyle=orthogonalEdgeStyle;rounded=0;orthogonalLoop=1;jettySize=auto;html=1;exitX=0.5;exitY=0;exitDx=0;exitDy=0;entryX=0.5;entryY=1;entryDx=0;entryDy=0;curved=1;sketch=1;curveFitting=1;jiggle=2;shadow=1;" edge="1" parent="1" source="YMt_CVixLTHwNkyfTnBB-8" target="AaMLPRYkscA9fuNhLtrj-90">
          <mxGeometry relative="1" as="geometry" />
        </mxCell>
        <mxCell id="YMt_CVixLTHwNkyfTnBB-8" value="ACTIVE?" style="ellipse;whiteSpace=wrap;html=1;sketch=1;curveFitting=1;jiggle=2;shadow=1;" vertex="1" parent="1">
          <mxGeometry x="690" y="850" width="120" height="80" as="geometry" />
        </mxCell>
        <mxCell id="YMt_CVixLTHwNkyfTnBB-10" value="NAME" style="ellipse;whiteSpace=wrap;html=1;sketch=1;curveFitting=1;jiggle=2;shadow=1;" vertex="1" parent="1">
          <mxGeometry x="710" y="190" width="120" height="80" as="geometry" />
        </mxCell>
        <mxCell id="YMt_CVixLTHwNkyfTnBB-12" style="edgeStyle=orthogonalEdgeStyle;rounded=0;orthogonalLoop=1;jettySize=auto;html=1;exitX=0.5;exitY=1;exitDx=0;exitDy=0;entryX=0.5;entryY=0;entryDx=0;entryDy=0;curved=1;sketch=1;curveFitting=1;jiggle=2;shadow=1;" edge="1" parent="1" source="YMt_CVixLTHwNkyfTnBB-11" target="f7JD7WUSecMkNCpaBmJr-2">
          <mxGeometry relative="1" as="geometry" />
        </mxCell>
        <mxCell id="YMt_CVixLTHwNkyfTnBB-11" value="ACTIVE?" style="ellipse;whiteSpace=wrap;html=1;sketch=1;curveFitting=1;jiggle=2;shadow=1;" vertex="1" parent="1">
          <mxGeometry x="850" y="180" width="120" height="80" as="geometry" />
        </mxCell>
        <mxCell id="YMt_CVixLTHwNkyfTnBB-13" style="edgeStyle=orthogonalEdgeStyle;rounded=0;orthogonalLoop=1;jettySize=auto;html=1;exitX=0.5;exitY=1;exitDx=0;exitDy=0;entryX=0.075;entryY=0.05;entryDx=0;entryDy=0;entryPerimeter=0;curved=1;sketch=1;curveFitting=1;jiggle=2;shadow=1;" edge="1" parent="1" source="YMt_CVixLTHwNkyfTnBB-10" target="f7JD7WUSecMkNCpaBmJr-2">
          <mxGeometry relative="1" as="geometry" />
        </mxCell>
        <mxCell id="YMt_CVixLTHwNkyfTnBB-14" value="&lt;h1&gt;&lt;span style=&quot;font-size: 12px; font-weight: 400;&quot;&gt;Entity to enroll user to an specific group&lt;/span&gt;&lt;/h1&gt;" style="text;html=1;strokeColor=#6c8ebf;fillColor=#dae8fc;spacing=5;spacingTop=-20;whiteSpace=wrap;overflow=hidden;rounded=0;sketch=1;curveFitting=1;jiggle=2;shadow=1;" vertex="1" parent="1">
          <mxGeometry x="550" y="280" width="190" height="70" as="geometry" />
        </mxCell>
        <mxCell id="YMt_CVixLTHwNkyfTnBB-15" style="edgeStyle=orthogonalEdgeStyle;rounded=0;orthogonalLoop=1;jettySize=auto;html=1;exitX=1;exitY=1;exitDx=0;exitDy=0;entryX=0.167;entryY=0;entryDx=0;entryDy=0;entryPerimeter=0;sketch=1;curveFitting=1;jiggle=2;curved=1;shadow=1;" edge="1" parent="1" source="YMt_CVixLTHwNkyfTnBB-14" target="AaMLPRYkscA9fuNhLtrj-99">
          <mxGeometry relative="1" as="geometry" />
        </mxCell>
        <mxCell id="YMt_CVixLTHwNkyfTnBB-17" style="edgeStyle=orthogonalEdgeStyle;rounded=0;orthogonalLoop=1;jettySize=auto;html=1;exitX=0.5;exitY=1;exitDx=0;exitDy=0;shadow=1;sketch=1;curveFitting=1;jiggle=2;curved=1;" edge="1" parent="1" source="YMt_CVixLTHwNkyfTnBB-16">
          <mxGeometry relative="1" as="geometry">
            <mxPoint x="530" y="450" as="targetPoint" />
          </mxGeometry>
        </mxCell>
        <mxCell id="YMt_CVixLTHwNkyfTnBB-18" style="edgeStyle=orthogonalEdgeStyle;rounded=0;orthogonalLoop=1;jettySize=auto;html=1;exitX=0.75;exitY=1;exitDx=0;exitDy=0;shadow=1;sketch=1;curveFitting=1;jiggle=2;curved=1;" edge="1" parent="1" source="YMt_CVixLTHwNkyfTnBB-16">
          <mxGeometry relative="1" as="geometry">
            <mxPoint x="650" y="640" as="targetPoint" />
            <Array as="points">
              <mxPoint x="482" y="380" />
              <mxPoint x="650" y="380" />
            </Array>
          </mxGeometry>
        </mxCell>
        <mxCell id="YMt_CVixLTHwNkyfTnBB-16" value="&lt;h1&gt;Double relationship&lt;/h1&gt;&lt;p&gt;cause one of the relations it&#39;s refers to the student or user that requires a session, and the another relation is refering to the teacher.&lt;/p&gt;" style="text;html=1;strokeColor=#6c8ebf;fillColor=#dae8fc;spacing=5;spacingTop=-20;whiteSpace=wrap;overflow=hidden;rounded=0;sketch=1;curveFitting=1;jiggle=2;shadow=1;" vertex="1" parent="1">
          <mxGeometry x="340" y="140" width="190" height="150" as="geometry" />
        </mxCell>
      </root>
    </mxGraphModel>
  </diagram>
  <diagram id="nLHBBJSXB95iu_P94FqL" name="MR">
    <mxGraphModel dx="1418" dy="820" grid="1" gridSize="10" guides="1" tooltips="1" connect="1" arrows="1" fold="1" page="1" pageScale="1" pageWidth="827" pageHeight="1169" math="0" shadow="0">
      <root>
        <mxCell id="0" />
        <mxCell id="1" parent="0" />
      </root>
    </mxGraphModel>
  </diagram>
  <diagram id="V0oHnmpo_Br5Jx1cxLAW" name="Page-3">
    <mxGraphModel dx="1418" dy="820" grid="1" gridSize="10" guides="1" tooltips="1" connect="1" arrows="1" fold="1" page="1" pageScale="1" pageWidth="827" pageHeight="1169" math="0" shadow="0">
      <root>
        <mxCell id="0" />
        <mxCell id="1" parent="0" />
      </root>
    </mxGraphModel>
  </diagram>
</mxfile>
